<?xml version="1.0" encoding="UTF-8" standalone="no"?>
<svg
   xmlns:dc="http://purl.org/dc/elements/1.1/"
   xmlns:cc="http://creativecommons.org/ns#"
   xmlns:rdf="http://www.w3.org/1999/02/22-rdf-syntax-ns#"
   xmlns:svg="http://www.w3.org/2000/svg"
   xmlns="http://www.w3.org/2000/svg"
   xmlns:sodipodi="http://sodipodi.sourceforge.net/DTD/sodipodi-0.dtd"
   xmlns:inkscape="http://www.inkscape.org/namespaces/inkscape"
   width="100.0807mm"
   height="12.445888mm"
   viewBox="0 0 100.0807 12.445888"
   version="1.1"
   id="svg8"
   sodipodi:docname="logo_sd.svg"
   inkscape:version="1.0.1 (3bc2e813f5, 2020-09-07)">
  <defs
     id="defs2" />
  <sodipodi:namedview
     id="base"
     pagecolor="#ffffff"
     bordercolor="#666666"
     borderopacity="1.0"
     inkscape:pageopacity="0.0"
     inkscape:pageshadow="2"
     inkscape:zoom="1.4"
     inkscape:cx="337.89339"
     inkscape:cy="51.943508"
     inkscape:document-units="mm"
     inkscape:current-layer="layer1"
     inkscape:document-rotation="0"
     showgrid="false"
     inkscape:window-width="2560"
     inkscape:window-height="1377"
     inkscape:window-x="-8"
     inkscape:window-y="1432"
     inkscape:window-maximized="1"
     fit-margin-top="0"
     fit-margin-left="0"
     fit-margin-right="0"
     fit-margin-bottom="0" />
  <metadata
     id="metadata5">
    <rdf:RDF>
      <cc:Work
         rdf:about="">
        <dc:format>image/svg+xml</dc:format>
        <dc:type
           rdf:resource="http://purl.org/dc/dcmitype/StillImage" />
        <dc:title></dc:title>
      </cc:Work>
    </rdf:RDF>
  </metadata>
  <g
     inkscape:label="Warstwa 1"
     inkscape:groupmode="layer"
     id="layer1"
     transform="translate(-3.8827925,-4.1714009)">
    <g
       id="g40"
       transform="translate(-1.3185056,0.67675431)"
       style="fill:#000000;fill-opacity:1;stroke:none;stroke-width:0.3;stroke-linejoin:round;stroke-miterlimit:4;stroke-dasharray:none;stroke-opacity:1;paint-order:stroke fill markers">
      <path
         style="fill:#000000;fill-opacity:1;stroke:none;stroke-width:0.3;stroke-linejoin:round;stroke-miterlimit:4;stroke-dasharray:none;stroke-opacity:1;paint-order:stroke fill markers"
         d="m 24.750139,15.783284 c -0.303033,-0.160951 -1.010094,-0.410186 -1.31108,-0.462145 -0.305439,-0.05273 -0.927907,-0.24181 -1.100667,-0.33434 -0.174833,-0.09364 -0.350469,-0.128325 -0.931333,-0.183918 -0.186266,-0.01783 -0.338666,-0.04027 -0.338666,-0.04987 0,-0.0096 -0.117294,-0.0265 -0.260654,-0.03755 -0.14336,-0.01105 -0.534406,-0.08718 -0.868994,-0.169172 -0.471951,-0.115658 -0.635338,-0.126673 -0.728767,-0.04913 -0.08483,0.07041 -0.16808,0.07444 -0.281654,0.01366 -0.348164,-0.186332 -2.187616,-0.282751 -2.855265,-0.149665 -0.09313,0.01857 -0.23596,-0.02451 -0.317393,-0.09572 -0.20921,-0.182942 -1.460237,-0.140175 -1.580257,0.05402 -0.03958,0.06404 -0.143583,0.06995 -0.323417,0.01837 -0.323501,-0.09278 -1.723983,-0.09049 -1.846953,0.003 -0.116377,0.0885 -1.062833,0.235915 -1.193269,0.185863 -0.05575,-0.02139 -0.190167,0.01902 -0.298704,0.0898 -0.118347,0.07718 -0.430432,0.136075 -0.7796496,0.147127 -0.3202704,0.01014 -0.8346203,0.08736 -1.143,0.171603 -0.3083796,0.08425 -0.6510802,0.154285 -0.7615571,0.15564 -0.1780958,0.0022 -0.187694,-0.01377 -0.084667,-0.140787 0.06391,-0.07879 0.074925,-0.118565 0.024478,-0.08839 -0.050447,0.03017 -0.09172,0.0089 -0.091717,-0.04725 3e-6,-0.05616 0.094743,-0.107967 0.2105343,-0.115128 0.1527057,-0.0094 0.1778963,0.0076 0.091717,0.0622 -0.09562,0.06054 -0.096606,0.07548 -0.00505,0.07652 0.062568,6.78e-4 0.1336866,-0.0749 0.1580415,-0.168037 0.030981,-0.118473 0.1154867,-0.169333 0.2813513,-0.169333 0.1303882,0 0.2562867,-0.04763 0.2797743,-0.105833 0.025512,-0.06322 0.045396,-0.04618 0.049389,0.04233 0.00368,0.08149 -0.052714,0.148167 -0.1253126,0.148167 -0.073491,0 -0.1067827,0.0408 -0.07511,0.09204 0.040964,0.06628 0.082649,0.06628 0.1489301,0 0.050624,-0.05063 0.1583751,-0.09205 0.2394469,-0.09205 0.2213518,0 0.279652,-0.165513 0.1036355,-0.29422 -0.1352929,-0.09893 -0.098187,-0.10825 0.2869646,-0.07209 0.3321775,0.03118 0.475708,0.0082 0.5762873,-0.09241 0.1858145,-0.185814 0.3324735,-0.167366 0.4496525,0.05656 0.09397,0.179567 0.09751,0.175923 0.06176,-0.0635 -0.03462,-0.231812 -0.0155,-0.255615 0.218845,-0.272485 0.141227,-0.01017 0.311373,-0.0638 0.378104,-0.119178 0.221136,-0.183527 0.316005,0.04028 0.152922,0.360768 -0.177877,0.349558 -0.08227,0.269771 0.190309,-0.158821 0.150622,-0.236831 0.187421,-0.264286 0.143794,-0.107282 -0.0543,0.1954 -0.04738,0.201661 0.09349,0.08467 0.08366,-0.06949 0.270136,-0.133376 0.414379,-0.141981 1.444909,-0.0862 2.212093,-0.09488 2.295106,-0.02599 0.06392,0.05305 0.152838,0.04079 0.257116,-0.03546 0.105212,-0.07693 0.222219,-0.09268 0.344182,-0.04631 0.101629,0.03864 0.20885,0.04618 0.238269,0.01676 0.05088,-0.05088 0.124347,-0.0706 0.514255,-0.138026 0.09313,-0.01611 0.232931,-0.05627 0.31066,-0.08925 0.08177,-0.03469 0.230446,-0.0016 0.352812,0.07861 0.203499,0.133338 0.630239,0.128692 1.103964,-0.01202 0.102967,-0.03058 0.138408,-0.01421 0.100836,0.04658 -0.03186,0.05155 -0.01983,0.09374 0.02674,0.09374 0.04657,0 0.109357,-0.03995 0.139534,-0.08878 0.03638,-0.05887 0.08883,-0.06059 0.155687,-0.0051 0.05545,0.04602 0.318759,0.09249 0.585129,0.103267 0.266371,0.01078 0.48431,0.04998 0.48431,0.08711 0,0.03714 0.05828,0.04515 0.129523,0.01782 0.08533,-0.03274 0.112324,-0.111285 0.07912,-0.230176 -0.03796,-0.135908 -0.02974,-0.150492 0.03327,-0.05906 0.05594,0.08118 0.07741,-0.550124 0.06477,-1.905 -0.01039,-1.114528 0.0096,-2.1093071 0.04438,-2.21062 C 19.338691,9.1357523 19.192911,7.6532136 19.07878,7.5156948 19.033,7.4605278 19.01495,7.3959761 19.03868,7.3722475 19.0624,7.3485589 18.963384,7.0472644 18.818634,6.7027442 18.673886,6.3582249 18.530315,5.9810947 18.49959,5.864678 18.463296,5.7271591 18.376032,5.6457761 18.250484,5.6323572 c -0.106282,-0.01136 -0.392032,-0.2113454 -0.635,-0.4444124 -0.242967,-0.233067 -0.4899,-0.4237976 -0.54874,-0.4238459 -0.05884,-4.82e-5 -0.17314,-0.032582 -0.254,-0.072297 -0.676032,-0.3320387 -0.812875,-0.3726557 -1.222607,-0.36289 -0.246627,0.00588 -0.570594,0.0459 -0.71993,0.088937 -0.270801,0.078042 -0.377154,0.075541 -0.617481,-0.014522 -0.273742,-0.1025857 -0.508,-0.1278204 -0.508,-0.054723 0,0.042207 -0.04187,0.07674 -0.09304,0.07674 -0.285966,0 -1.219295,0.57738 -1.219295,0.7542856 0,0.065607 -0.1143,0.1776723 -0.254,0.2490337 -0.333133,0.1701703 -0.971522,0.9237672 -1.031633,1.2178066 -0.02651,0.1297004 -0.08576,0.2077007 -0.134757,0.1774184 -0.0505,-0.031208 -0.06192,-0.012742 -0.02703,0.043708 0.03323,0.053762 0.03282,0.142392 -9.03e-4,0.1969565 -0.03372,0.054564 -0.07304,0.4641394 -0.08738,0.9101667 -0.01434,0.4460272 -0.03548,0.8681086 -0.047,0.9379586 -0.01151,0.06985 0.03188,0.2898919 0.09643,0.488982 0.09334,0.2879093 0.0976,0.4475948 0.02079,0.78036 -0.05674,0.245832 -0.07922,0.777447 -0.05449,1.289019 0.02898,0.599538 0.01553,0.831094 -0.04318,0.743639 -0.07317,-0.108992 -0.08544,-0.10599 -0.08656,0.02117 -7.11e-4,0.08149 0.03711,0.148167 0.08405,0.148167 0.04694,0 0.07882,0.172552 0.07085,0.383448 -0.008,0.210897 -0.04924,0.37187 -0.0917,0.357717 -0.04246,-0.01415 -0.07108,-0.05862 -0.06362,-0.09882 0.0075,-0.0402 -0.02264,-0.09639 -0.0669,-0.124883 -0.04427,-0.02849 -0.107167,-0.14705 -0.139778,-0.263466 -0.04518,-0.161283 -0.03812,-0.181437 0.02963,-0.08467 0.05551,0.07928 0.0894,0.08881 0.09021,0.02537 7.11e-4,-0.05589 -0.05162,-0.132094 -0.116307,-0.169333 -0.164063,-0.09446 -0.220803,-0.872041 -0.06363,-0.872041 0.07463,0 0.100449,0.06068 0.07204,0.169333 -0.02988,0.114246 -0.0026,0.169334 0.08385,0.169334 0.09044,0 0.108939,-0.04358 0.06289,-0.148167 -0.03589,-0.08149 -0.06854,-0.233892 -0.07256,-0.338667 -0.004,-0.104775 -0.03814,-0.1905 -0.07581,-0.1905 -0.03767,0 -0.04658,-0.03547 -0.01979,-0.07882 0.02679,-0.04335 0.01,-0.102747 -0.03734,-0.131997 -0.04733,-0.02925 -0.08605,0.004 -0.08605,0.07382 0,0.06985 -0.0297,0.145358 -0.06601,0.167796 -0.07523,0.0465 -0.07521,-0.294026 2.5e-5,-0.416078 0.09509,-0.154267 0.101721,-0.697345 0.0099,-0.811753 -0.05089,-0.063418 -0.120582,-0.2066083 -0.154867,-0.3182009 -0.05447,-0.1772961 -0.03961,-0.196954 0.117746,-0.1558033 0.125943,0.032935 0.207851,-0.0048 0.272454,-0.1255077 0.08518,-0.1591685 0.07192,-0.1695982 -0.170442,-0.1340269 -0.255047,0.037433 -0.262814,0.028964 -0.262814,-0.286579 0,-0.1788335 -0.04533,-0.3977411 -0.100739,-0.4864614 -0.07927,-0.1269255 -0.07648,-0.190547 0.0131,-0.2984757 0.103214,-0.1243655 0.13632,-0.1156273 0.35474,0.093632 0.132496,0.1269391 0.240901,0.198944 0.240901,0.1600109 0,-0.038933 -0.136285,-0.203146 -0.302856,-0.3649176 -0.216346,-0.2101129 -0.276808,-0.3201781 -0.211667,-0.3853196 0.05016,-0.050154 0.09119,-0.1597695 0.09119,-0.2435895 0,-0.08382 0.04067,-0.1524 0.09037,-0.1524 0.05052,0 0.06767,-0.071532 0.03889,-0.1622081 -0.02831,-0.089214 -0.01121,-0.1870971 0.03801,-0.217517 0.04922,-0.03042 0.06654,-0.092445 0.03849,-0.1378341 -0.06971,-0.1128008 0.130774,-0.3404199 0.240249,-0.2727603 0.04921,0.03041 0.06305,0.013863 0.03134,-0.037451 -0.06216,-0.1005703 0.191398,-0.6962299 0.296364,-0.6962299 0.03576,0 0.128782,-0.1343839 0.206722,-0.2986309 0.104062,-0.2192924 0.181181,-0.2861033 0.29028,-0.2514769 0.0924,0.029328 0.169095,-0.00634 0.202867,-0.094345 0.0455,-0.1185681 0.0334,-0.1241573 -0.07464,-0.03449 -0.250031,0.2075072 -0.125393,-0.028786 0.140311,-0.2660059 0.244769,-0.2185294 0.35123,-0.2723571 0.502678,-0.2541582 0.02874,0.00345 0.14016,-0.087284 0.247592,-0.2016404 0.107432,-0.1143562 0.285136,-0.2079203 0.394897,-0.2079203 0.109761,0 0.221495,-0.05715 0.248299,-0.127 0.0268,-0.06985 0.08028,-0.127 0.118831,-0.127 0.03855,0 0.177353,-0.045374 0.308442,-0.1008303 0.245843,-0.1040022 0.325212,-0.119289 0.730175,-0.140634 0.134582,-0.00709 0.215114,-0.049292 0.185503,-0.097202 -0.05875,-0.095056 0.150774,-0.1173376 0.24234,-0.025772 0.09405,0.094047 0.301091,0.1155575 1.112327,0.1155629 0.555611,3.7e-6 0.727602,0.024038 0.635,0.088735 -0.09916,0.069278 -0.07765,0.080894 0.0981,0.052987 0.174509,-0.027709 0.214023,-0.00687 0.175802,0.092737 -0.03469,0.0904 -0.01058,0.1136215 0.08134,0.078348 0.07185,-0.027573 0.254216,0.025016 0.405248,0.1168635 0.151032,0.091848 0.293416,0.1481836 0.31641,0.12519 0.02299,-0.022994 0.08537,-0.00541 0.138618,0.039086 0.396658,0.331433 0.544455,0.4913966 0.49745,0.5384017 -0.03002,0.030017 0.03164,0.077123 0.137014,0.1046793 0.120757,0.031579 0.174528,0.094568 0.145439,0.1703725 -0.02538,0.066149 -0.01529,0.1011934 0.02244,0.077877 0.07477,-0.04621 0.3528,0.2422661 0.3528,0.3660564 0,0.042087 0.1143,0.1844028 0.254,0.3162573 0.165178,0.1559023 0.254,0.322998 0.254,0.4778403 0,0.1309578 0.03397,0.2171121 0.07548,0.191454 0.07321,-0.045244 0.136899,0.2115705 0.23258,0.9378014 0.02542,0.1929458 0.0037,0.4302133 -0.04821,0.5272612 -0.07434,0.1389087 -0.07086,0.1674053 0.01636,0.1339363 0.07408,-0.028427 0.117257,0.04234 0.130304,0.2135721 0.01101,0.1445472 -0.0219,0.2560866 -0.07556,0.2560866 -0.05677,0 -0.07109,0.059687 -0.03555,0.1481667 0.05356,0.1333341 0.157217,1.6079198 0.15028,2.1378338 -0.01125,0.859256 -0.128305,2.336912 -0.194995,2.461523 -0.04465,0.08342 -0.157414,0.175873 -0.250598,0.205448 -0.441106,0.140002 0.0818,0.448701 0.557725,0.329253 0.144293,-0.03622 0.21841,-0.0097 0.257513,0.09223 0.04332,0.112892 0.06954,0.119402 0.124263,0.03086 0.05524,-0.08938 0.09076,-0.09082 0.174484,-0.0071 0.05782,0.05782 0.19526,0.105125 0.305425,0.105125 0.110165,0 0.28352,0.04548 0.385233,0.101065 0.101714,0.05559 0.289709,0.09081 0.417768,0.07829 0.135703,-0.01328 0.232833,0.01903 0.232833,0.07745 0,0.06463 0.07518,0.08136 0.211667,0.0471 0.116416,-0.02922 0.211666,-0.02065 0.211666,0.01904 0,0.03969 0.04763,0.07611 0.105833,0.08094 0.82962,0.06874 1.223479,0.152699 1.468061,0.312956 0.108981,0.07141 0.252576,0.129831 0.319099,0.129831 0.06652,0 0.344088,0.125195 0.616812,0.278212 0.390264,0.218964 0.501567,0.327146 0.522652,0.508 0.03282,0.281526 -0.143866,0.303845 -0.578377,0.07306 z m -8.634746,-2.213939 c 0,-0.04657 -0.04035,-0.08467 -0.08966,-0.08467 -0.04931,0 -0.06612,0.0381 -0.03734,0.08467 0.02878,0.04657 0.06913,0.08467 0.08966,0.08467 0.02053,0 0.03734,-0.0381 0.03734,-0.08467 z M 10.283899,8.4667671 c -0.08362,-0.082996 -0.09334,-0.073271 -0.0474,0.047396 0.03179,0.0835 0.07914,0.1304901 0.105205,0.1044222 0.02607,-0.026068 5.4e-5,-0.094386 -0.05781,-0.1518181 z m 0.158827,-0.6497588 c 0,-0.043819 -0.0381,-0.103217 -0.08467,-0.1319968 -0.04657,-0.02878 -0.08467,0.00707 -0.08467,0.07967 0,0.072598 0.0381,0.1319968 0.08467,0.1319968 0.04657,0 0.08467,-0.035852 0.08467,-0.07967 z m 0.381,-1.1056636 c -0.02878,-0.046567 -0.0977,-0.084083 -0.153163,-0.08337 -0.06059,7.79e-4 -0.05015,0.034055 0.02616,0.08337 0.162655,0.1051158 0.191965,0.1051158 0.127,0 z M 5.2554819,15.675506 c 0.057432,-0.05786 0.1257504,-0.08388 0.1518182,-0.05781 0.026068,0.02607 -0.020922,0.07341 -0.1044222,0.105205 -0.1206668,0.04595 -0.1303919,0.03622 -0.047396,-0.0474 z m 0.537262,-0.03888 c 0.00406,-0.09863 0.024125,-0.118694 0.051153,-0.05115 0.024458,0.06112 0.02145,0.134144 -0.00668,0.162278 -0.028134,0.02813 -0.048145,-0.02187 -0.044469,-0.111125 z m 0.1693333,-0.08467 c 0.00406,-0.09863 0.024125,-0.118694 0.051153,-0.05115 0.024458,0.06112 0.02145,0.134143 -0.00668,0.162278 -0.028134,0.02813 -0.048145,-0.02187 -0.044469,-0.111125 z m 0.3836878,-0.155 c 0.038358,-0.100687 0.02957,-0.142176 -0.023206,-0.109558 -0.046719,0.02887 -0.084944,-0.003 -0.084944,-0.07078 0,-0.167193 0.1104186,-0.156048 0.1771617,0.01788 0.029792,0.07764 0.012561,0.182412 -0.038291,0.232834 -0.066688,0.06612 -0.075251,0.04651 -0.030721,-0.07038 z m 0.4239895,-0.01168 c -0.029146,-0.07595 -0.014804,-0.109384 0.033991,-0.07923 0.046427,0.02869 0.1157684,-0.03259 0.1540916,-0.136189 0.059127,-0.159837 0.077848,-0.167071 0.1236266,-0.04777 0.029671,0.07732 0.017044,0.140587 -0.028061,0.140587 -0.045105,0 -0.082009,0.05715 -0.082009,0.127 0,0.166465 -0.1372206,0.163472 -0.2016385,-0.0044 z M 7.2442118,15.01822 c -0.00406,-0.142857 0.044242,-0.269628 0.1127545,-0.295919 0.090074,-0.03456 0.1145097,0.01999 0.098329,0.219516 -0.027752,0.342213 -0.2017353,0.405186 -0.2110833,0.0764 z"
         id="path50" />
      <path
         style="fill:#000000;fill-opacity:1;stroke:none;stroke-width:0.3;stroke-linejoin:round;stroke-miterlimit:4;stroke-dasharray:none;stroke-opacity:1;paint-order:stroke fill markers"
         d="m 24.660926,15.73482 c -0.211998,-0.112856 -0.630795,-0.268193 -0.930659,-0.345194 -0.745176,-0.19135 -1.373862,-0.392994 -1.480957,-0.474998 -0.049,-0.03752 -0.334745,-0.0854 -0.635,-0.10642 -0.300255,-0.02101 -0.545917,-0.04479 -0.545917,-0.05283 0,-0.008 -0.1143,-0.03028 -0.254,-0.04941 -0.637585,-0.08731 -1.25082,-0.240542 -1.346814,-0.336536 -0.08373,-0.08373 -0.125293,-0.07284 -0.20418,0.05348 -0.07935,0.127056 -0.140689,0.142775 -0.308374,0.07902 -0.511899,-0.194624 -2.658382,-0.295394 -2.821324,-0.132451 -0.02592,0.02592 -0.143681,-0.01614 -0.261694,-0.09347 -0.151118,-0.09902 -0.365932,-0.134922 -0.726425,-0.121417 -0.816041,0.03057 -0.895265,0.04359 -0.966486,0.158861 -0.05174,0.08374 -0.123574,0.08776 -0.308843,0.01733 -0.260247,-0.09895 -1.804563,-0.09107 -1.866731,0.0095 -0.04846,0.07841 -0.636215,0.177822 -1.037694,0.175521 -0.171289,-9.82e-4 -0.389104,0.04796 -0.484033,0.108756 -0.150048,0.0961 -0.7025349,0.16527 -1.9272845,0.241302 -0.1770353,0.01099 -0.3484853,0.05714 -0.381,0.102554 -0.032515,0.04542 -0.1706313,0.0946 -0.3069257,0.109292 -0.2268638,0.02446 -0.2375976,0.01414 -0.127,-0.122086 0.066444,-0.08184 0.079533,-0.124117 0.029086,-0.09394 -0.050447,0.03017 -0.091722,0.0014 -0.091722,-0.06384 0,-0.08935 0.038815,-0.09793 0.156972,-0.03469 0.181297,0.09703 0.3228058,0.03544 0.3228058,-0.140485 0,-0.07834 0.088378,-0.122003 0.2469444,-0.122003 0.1358194,0 0.2661616,-0.04763 0.2896491,-0.105834 0.025512,-0.06322 0.045396,-0.04618 0.049389,0.04233 0.00397,0.08792 0.073501,0.148166 0.1710208,0.148166 0.2349037,0 0.3024909,-0.161195 0.1227073,-0.292656 -0.1318611,-0.09642 -0.085784,-0.106355 0.3301883,-0.0712 0.2887395,0.0244 0.4834345,0.0072 0.4834345,-0.04259 0,-0.190499 0.292688,-0.190402 0.447476,1.7e-4 l 0.158102,0.19463 -0.03705,-0.232834 c -0.02167,-0.136199 0.002,-0.233313 0.05704,-0.233989 0.05175,-6.77e-4 0.180383,-0.02428 0.285851,-0.05254 0.158455,-0.04246 0.181688,-0.02514 0.133778,0.09971 -0.04124,0.10747 -0.02772,0.132388 0.04685,0.08631 0.05766,-0.03563 0.08484,-0.116862 0.06042,-0.180511 -0.05795,-0.151023 0.106325,-0.250886 0.22216,-0.135051 0.06339,0.06339 0.04874,0.152656 -0.04971,0.302911 -0.07677,0.117147 -0.139586,0.238069 -0.139586,0.268692 0,0.0971 0.253876,-0.150741 0.256693,-0.250588 0.0015,-0.05251 0.06114,-0.171667 0.132583,-0.2648 0.123535,-0.161049 0.126931,-0.156906 0.06942,0.08467 l -0.06047,0.254 0.180171,-0.211667 c 0.153202,-0.179985 0.192906,-0.192657 0.26526,-0.08467 0.06405,0.0956 0.08541,0.09909 0.08639,0.01411 7.11e-4,-0.06209 0.04892,-0.09614 0.107129,-0.07566 0.05821,0.02048 0.19021,0.0061 0.293336,-0.03204 0.110049,-0.04066 0.208645,-0.03507 0.238684,0.01354 0.02815,0.04555 0.07712,0.06771 0.108831,0.04925 0.03171,-0.01846 0.305299,-0.05526 0.607983,-0.08178 0.302683,-0.02652 0.502708,-0.02792 0.4445,-0.0031 -0.05821,0.02482 -0.105834,0.08595 -0.105834,0.135852 0,0.0499 0.06968,0.02768 0.154834,-0.04939 0.173748,-0.157239 0.401104,-0.183381 0.480308,-0.05523 0.03465,0.05607 0.110893,0.05363 0.224549,-0.0072 0.09464,-0.05065 0.258126,-0.0705 0.363292,-0.0441 0.105166,0.02639 0.21702,0.02218 0.248566,-0.0094 0.0557,-0.0557 0.215424,-0.09756 0.475785,-0.124689 0.06985,-0.0073 0.218488,0.01674 0.330307,0.05338 0.166766,0.05464 0.193874,0.04203 0.150825,-0.07015 -0.06591,-0.171748 -0.0206,-0.171774 0.241359,-1.7e-4 0.201277,0.131881 0.73686,0.11717 1.122555,-0.03083 0.09288,-0.03564 0.110019,-0.01747 0.05995,0.06353 -0.05067,0.08198 -0.03256,0.09903 0.06531,0.06148 0.07448,-0.02858 0.153923,-0.0065 0.176538,0.04911 0.0293,0.07202 0.04304,0.06921 0.0478,-0.0098 0.0037,-0.06096 0.0358,-0.09283 0.0714,-0.07084 0.03559,0.022 0.273716,0.05019 0.529166,0.06264 0.255451,0.01246 0.490126,0.06093 0.521502,0.107726 0.03701,0.05519 0.101031,0.04857 0.182267,-0.01885 0.09642,-0.08002 0.132985,-0.08062 0.158985,-0.0026 0.01992,0.05975 0.215823,0.105068 0.477685,0.110495 0.292647,0.0061 0.471041,0.05209 0.523505,0.135073 0.05625,0.08896 0.07997,0.09396 0.08088,0.01706 9.06e-4,-0.07596 0.04603,-0.08595 0.149463,-0.03309 0.08149,0.04165 0.279016,0.100589 0.438944,0.130984 0.159927,0.0304 0.366502,0.121488 0.459054,0.202427 0.09255,0.08094 0.140428,0.09953 0.106392,0.04133 -0.04281,-0.07322 0.0049,-0.105833 0.154779,-0.105833 0.119165,0 0.216664,0.04223 0.216664,0.09384 0,0.05697 0.08042,0.07366 0.204659,0.04248 0.112563,-0.02825 0.217338,-0.01366 0.232834,0.03242 0.0155,0.04608 0.142473,0.08804 0.282173,0.09324 0.36342,0.01351 1.064513,0.165882 1.312334,0.285209 1.363704,0.656627 1.396691,0.677786 1.42379,0.913306 0.03443,0.299271 -0.143496,0.306638 -0.66759,0.02764 z M 8.7070596,14.670012 c 0.02878,-0.04657 -0.00707,-0.08467 -0.07967,-0.08467 -0.072598,0 -0.1319968,0.0381 -0.1319968,0.08467 0,0.04657 0.035851,0.08467 0.07967,0.08467 0.043819,0 0.103217,-0.0381 0.1319968,-0.08467 z M 6.971393,15.173015 c 0,-0.04931 0.0381,-0.06612 0.084667,-0.03734 0.046567,0.02878 0.084667,0.06913 0.084667,0.08966 0,0.02054 -0.0381,0.03734 -0.084667,0.03734 -0.046567,0 -0.084667,-0.04035 -0.084667,-0.08966 z m 0.3111386,-0.113951 c -0.087128,-0.227053 -0.069379,-0.304385 0.069861,-0.304385 0.1391256,0 0.1471133,0.04528 0.051188,0.290143 -0.059306,0.15139 -0.068027,0.152416 -0.1210492,0.01424 z M 19.243858,13.294179 c -0.02651,-1.736618 -0.0106,-3.9503799 0.02884,-4.014211 0.02744,-0.044398 0.01128,-0.4404767 -0.03592,-0.8801739 -0.04719,-0.4396971 -0.09063,-0.8851743 -0.09653,-0.9899493 -0.0059,-0.104775 -0.03517,-0.1905 -0.06506,-0.1905 -0.02988,0 -0.102138,-0.161925 -0.160569,-0.3598334 C 18.856195,6.6616031 18.735864,6.380881 18.647224,6.2356845 18.558583,6.090488 18.486032,5.899988 18.485999,5.8123511 18.485959,5.7054176 18.42138,5.6493091 18.289648,5.6417547 18.180298,5.6354843 17.899689,5.4448124 17.656108,5.2112686 17.393463,4.9594468 17.074611,4.7472947 16.857626,4.6799886 16.658948,4.6183609 16.408314,4.5143841 16.300662,4.448929 16.074763,4.3115767 15.657929,4.2923555 15.007012,4.3892757 c -0.251874,0.037504 -0.496053,0.072824 -0.542619,0.07849 -0.04657,0.00567 -0.122767,-0.015357 -0.169334,-0.046719 -0.165491,-0.1114527 -0.550333,-0.1687818 -0.550333,-0.081982 0,0.047454 -0.05867,0.08628 -0.130373,0.08628 -0.115054,0 -0.405243,0.1400475 -1.002941,0.4840268 -0.09846,0.056665 -0.183782,0.1423898 -0.189603,0.1905 -0.0058,0.04811 -0.01534,0.1278218 -0.02117,0.1771367 -0.0058,0.049315 -0.04469,0.068584 -0.08638,0.04282 -0.04169,-0.025764 -0.09764,0.010087 -0.124343,0.07967 -0.0267,0.069583 -0.094,0.1265137 -0.149555,0.1265137 -0.136493,0 -0.621375,0.5546295 -0.809859,0.9263532 -0.08403,0.1657224 -0.186613,0.3258607 -0.227962,0.3558627 -0.04135,0.030002 -0.08449,0.296702 -0.09588,0.5926667 -0.01138,0.2959646 -0.03185,0.7857676 -0.04548,1.088451 -0.01363,0.3026833 0.02631,0.7132252 0.08876,0.9123153 0.0898,0.2863077 0.09314,0.4503667 0.01595,0.7847642 -0.05368,0.232531 -0.08122,0.74501 -0.06121,1.138844 0.02033,0.400258 0.0012,0.73782 -0.04346,0.765399 -0.04391,0.02714 -0.07983,0.125538 -0.07983,0.218671 0,0.09313 0.03552,0.147384 0.07892,0.120556 0.045,-0.02781 0.06974,0.09781 0.05756,0.29229 -0.01175,0.187588 -0.05679,0.331114 -0.100092,0.318949 -0.0433,-0.01217 -0.0692,-0.0507 -0.05756,-0.08562 0.01164,-0.03493 -0.01598,-0.0635 -0.06138,-0.0635 -0.04657,0 -0.06041,-0.110718 -0.03175,-0.254 0.03872,-0.193595 0.02002,-0.254 -0.07861,-0.254 -0.09421,0 -0.137391,-0.111333 -0.15875,-0.409339 -0.02072,-0.289037 0.0021,-0.409304 0.07772,-0.409222 0.06527,7.1e-5 0.08783,0.06071 0.0578,0.155339 -0.03438,0.108331 -0.0064,0.155222 0.0925,0.155222 0.103424,0 0.124118,-0.04007 0.07652,-0.148167 -0.03589,-0.08149 -0.06854,-0.251037 -0.07256,-0.376767 -0.0078,-0.245422 -0.21784,-0.548096 -0.220275,-0.3175 -0.0011,0.10627 -0.01185,0.106083 -0.07982,-0.0014 -0.04319,-0.06829 -0.04789,-0.163538 -0.01045,-0.211667 0.12617,-0.162183 0.168638,-0.708081 0.06197,-0.796605 -0.05606,-0.046522 -0.110335,-0.1862728 -0.120621,-0.3105567 -0.01399,-0.1690931 0.01289,-0.2138488 0.106802,-0.1778107 0.07365,0.028264 0.162245,-0.020494 0.21444,-0.1180204 0.07878,-0.1472067 0.06116,-0.1661807 -0.154323,-0.1661807 -0.219571,0 -0.244349,-0.028936 -0.254431,-0.2971386 C 10.1989,8.7907748 10.15639,8.5871152 10.11064,8.5016243 10.05079,8.3897901 10.06401,8.2939919 10.15777,8.1601256 10.260884,8.0129105 10.266717,7.9483098 10.18571,7.8507023 10.12255,7.7746063 10.11704,7.7273394 10.17131,7.7273394 c 0.04839,0 0.104987,0.047625 0.125775,0.1058334 0.02079,0.058208 0.06349,0.082182 0.09489,0.053274 0.0314,-0.028907 0.01021,-0.1554609 -0.0471,-0.2812299 -0.07371,-0.1617828 -0.07739,-0.2454718 -0.01256,-0.2861078 0.05039,-0.03159 0.110175,-0.1962993 0.132845,-0.3660201 0.05043,-0.3775805 0.129288,-0.5166282 0.250498,-0.4417161 0.05099,0.031516 0.06784,0.017865 0.03784,-0.030668 -0.06339,-0.1025746 0.145381,-0.5522707 0.325983,-0.7021569 0.06888,-0.057168 0.125243,-0.1479366 0.125243,-0.2017068 0,-0.1271619 0.471721,-0.643502 0.587894,-0.643502 0.04919,0 0.08944,-0.05715 0.08944,-0.127 0,-0.06985 0.05715,-0.132715 0.127,-0.1397 0.06985,-0.00698 0.174625,-0.01651 0.232834,-0.021167 0.05821,-0.00466 0.194945,-0.1132416 0.30386,-0.2413 0.112163,-0.1318789 0.284372,-0.2328333 0.39717,-0.2328333 0.109529,0 0.223047,-0.038677 0.252262,-0.085949 0.08894,-0.1439027 0.656403,-0.3560241 1.015208,-0.3794892 0.196757,-0.012868 0.329797,-0.061903 0.3175,-0.1170215 -0.02729,-0.1223213 0.05692,-0.1159844 0.307987,0.023176 0.141198,0.078263 0.447557,0.1026206 1.016,0.08078 0.601669,-0.023117 0.780736,-0.00724 0.686846,0.060912 -0.100995,0.073306 -0.08091,0.084862 0.0981,0.056438 0.168353,-0.026732 0.213482,-0.00546 0.179005,0.08439 -0.02878,0.074989 -1.3e-5,0.109792 0.07654,0.092615 0.210135,-0.047151 1.141676,0.4672139 1.29185,0.7133154 0.07814,0.1280583 0.20115,0.2328333 0.273349,0.2328333 0.08385,0 0.113058,0.047463 0.08085,0.1313974 -0.02773,0.072269 -0.01693,0.1106957 0.02401,0.085394 0.04094,-0.025302 0.136631,0.048919 0.212648,0.1649359 0.07602,0.1160169 0.111423,0.2109397 0.07868,0.2109397 -0.03274,0 0.06995,0.1156052 0.228213,0.2569004 0.179777,0.1605056 0.292717,0.3431764 0.300994,0.4868334 0.0073,0.1264631 0.05611,0.220408 0.108502,0.2087663 0.05621,-0.01249 0.09525,0.098258 0.09525,0.2701699 0,0.1602352 0.03186,0.3110284 0.0708,0.335096 0.102736,0.063494 0.114973,0.7927446 0.01435,0.8549354 -0.04683,0.028944 -0.08515,0.090726 -0.08515,0.1372924 0,0.046567 0.03404,0.063631 0.07564,0.037922 0.0416,-0.02571 0.100958,0.054153 0.13191,0.1774721 0.03498,0.1393679 0.01771,0.2480525 -0.04564,0.2872032 -0.06202,0.038332 -0.07669,0.1243279 -0.03748,0.2196979 0.0568,0.1381515 0.162473,1.6514611 0.146924,2.1040451 -0.03302,0.961303 -0.115192,2.150054 -0.157988,2.285675 -0.05258,0.166639 -0.264729,0.373383 -0.388525,0.378633 -0.03492,0.0015 -0.06539,-0.121133 -0.0677,-0.272474 z M 10.324193,8.5232115 c -0.03013,-0.078523 -0.07384,-0.1237196 -0.09712,-0.1004363 -0.02328,0.023283 -0.01768,0.1065797 0.01245,0.185103 0.03013,0.078523 0.07384,0.1237197 0.09712,0.1004364 0.02328,-0.023283 0.01768,-0.1065797 -0.01245,-0.1851031 z m 0.372533,-0.105411 c 0,-0.09576 -0.328995,-0.3896822 -0.379571,-0.3391063 -0.05604,0.056041 0.202764,0.4106507 0.299705,0.4106507 0.04393,0 0.07987,-0.032195 0.07987,-0.071544 z m 8.932333,-1.1984557 c 0.02878,-0.046567 0.01198,-0.084667 -0.03734,-0.084667 -0.04932,0 -0.08966,0.0381 -0.08966,0.084667 0,0.046567 0.0168,0.084667 0.03734,0.084667 0.02053,0 0.06088,-0.0381 0.08966,-0.084667 z M 10.86606,6.7113447 c 0,-0.046567 -0.06668,-0.084083 -0.148167,-0.08337 -0.126623,0.00111 -0.129701,0.01323 -0.02117,0.08337 0.159784,0.1032604 0.169334,0.1032604 0.169334,0 z m 0.930036,-1.6402004 c 7.12e-4,-0.040627 -0.05543,-0.026785 -0.124771,0.03076 -0.06934,0.057545 -0.102675,0.1424777 -0.07408,0.1887396 0.05247,0.084902 0.196298,-0.073856 0.198854,-0.2194996 z"
         id="path48" />
      <path
         style="fill:#000000;fill-opacity:1;stroke:none;stroke-width:0.3;stroke-linejoin:round;stroke-miterlimit:4;stroke-dasharray:none;stroke-opacity:1;paint-order:stroke fill markers"
         d="m 25.005392,15.856557 c 0,-0.05273 -0.03517,-0.07413 -0.07817,-0.04756 -0.04299,0.02657 -0.204917,-0.0264 -0.359834,-0.117704 -0.154916,-0.09131 -0.510266,-0.224841 -0.789666,-0.296741 -0.2794,-0.0719 -0.79375,-0.22251 -1.143,-0.334691 -0.873483,-0.280567 -1.354667,-0.383015 -1.354667,-0.288421 0,0.04285 -0.04044,0.05291 -0.08986,0.02237 -0.04942,-0.03054 -0.211345,-0.07195 -0.359833,-0.09201 -0.595671,-0.08048 -1.412977,-0.309396 -1.412977,-0.395751 0,-0.05045 -0.04941,-0.02416 -0.109789,0.05842 -0.09689,0.132501 -0.164049,0.139632 -0.5715,0.06068 -0.731292,-0.1417 -1.638994,-0.198986 -2.366699,-0.149365 -0.291608,0.01988 -0.528949,-0.0097 -0.635,-0.07912 -0.163564,-0.107087 -0.961295,-0.10462 -1.136258,0.0035 -0.04277,0.02644 -0.135387,-0.0096 -0.205807,-0.07997 -0.114273,-0.114272 -0.133102,-0.112081 -0.175141,0.02039 -0.04148,0.130693 -0.176202,0.149341 -1.127621,0.156079 -0.894826,0.0063 -1.419185,0.05022 -1.419185,0.118765 0,0.0068 -0.2286,0.03141 -0.508,0.05468 -0.2794,0.02327 -0.615751,0.09539 -0.747447,0.16025 -0.131696,0.06486 -0.474596,0.116393 -0.7620001,0.114506 -0.2874041,-0.0019 -0.6339469,0.03922 -0.7700949,0.09135 -0.1361482,0.05213 -0.3552232,0.07113 -0.4868334,0.04222 -0.1472845,-0.03235 -0.2392913,-0.01741 -0.2392913,0.03884 0,0.05027 -0.0762,0.0914 -0.1693333,0.0914 -0.093133,0 -0.1693334,-0.05596 -0.1693334,-0.124344 0,-0.07785 0.049369,-0.105398 0.1320508,-0.07367 0.089445,0.03432 0.1481253,-0.0108 0.1818712,-0.139841 0.046023,-0.175992 0.083596,-0.186544 0.4929442,-0.138433 0.3378253,0.0397 0.4680841,0.02201 0.5481625,-0.07448 0.078436,-0.09451 0.079704,-0.126564 0.00501,-0.126564 -0.055017,0 -0.074432,-0.04142 -0.043144,-0.09204 0.040964,-0.06628 0.082649,-0.06628 0.1489301,0 0.1494176,0.149417 0.4679038,0.10565 0.6649307,-0.09138 l 0.1834199,-0.18342 0.06785,0.18342 c 0.09226,0.249404 0.242641,0.231898 0.242641,-0.02825 0,-0.164426 0.04346,-0.211667 0.194734,-0.211667 0.107103,0 0.237892,-0.04316 0.290642,-0.09591 0.05275,-0.05275 0.157983,-0.07209 0.233851,-0.04298 0.125622,0.04821 0.12613,0.0698 0.0057,0.241748 -0.147174,0.210119 -0.168238,0.32047 -0.06117,0.32047 0.03909,0 0.120288,-0.104775 0.180434,-0.232833 0.06352,-0.135232 0.125474,-0.188271 0.147804,-0.126528 0.02618,0.0724 0.09188,0.0454 0.206006,-0.08467 0.110776,-0.126254 0.181975,-0.156544 0.210095,-0.08938 0.03019,0.0721 0.103945,0.07824 0.254072,0.02117 0.269985,-0.102648 0.455247,-0.105111 0.295499,-0.0039 -0.06417,0.04065 -0.09136,0.114874 -0.06041,0.164948 0.0365,0.05906 0.113559,0.03375 0.219357,-0.07204 0.123499,-0.123498 0.276797,-0.16173 0.6315,-0.157493 0.257626,0.0031 0.447298,0.03976 0.421494,0.08151 -0.07182,0.11621 0.03814,0.09108 0.316131,-0.07225 0.231391,-0.135951 0.26048,-0.136881 0.352811,-0.01129 0.08373,0.113892 0.11841,0.117841 0.206526,0.02351 0.0655,-0.07012 0.198439,-0.09486 0.348485,-0.06485 0.139085,0.02782 0.267524,0.0082 0.301037,-0.04606 0.03215,-0.05202 0.09362,-0.07284 0.136598,-0.04628 0.04298,0.02656 0.143117,0.01194 0.222527,-0.0325 0.09061,-0.05071 0.22226,-0.05119 0.353479,-0.0013 0.143584,0.05459 0.227821,0.0492 0.268856,-0.01719 0.04161,-0.06733 0.108013,-0.07095 0.218691,-0.0119 0.214591,0.114481 0.548326,0.141783 0.737886,0.06037 0.08559,-0.03676 0.285616,-0.02694 0.4445,0.02182 0.158885,0.04876 0.288881,0.06225 0.288881,0.02997 0,-0.06784 1.206075,0.06806 1.439333,0.162181 0.02328,0.0094 0.06959,0.01301 0.102897,0.008 0.03331,-0.005 0.152297,0.02583 0.264416,0.06846 0.1347,0.05121 0.235543,0.04581 0.29727,-0.01591 0.06811,-0.06811 0.135956,-0.05492 0.250454,0.0487 0.08637,0.07816 0.177465,0.121689 0.202433,0.09672 0.08452,-0.08452 0.871492,0.1354 0.975384,0.272574 0.08784,0.115981 0.123832,0.11911 0.241995,0.02104 0.117554,-0.09756 0.15361,-0.09624 0.23548,0.0086 0.05317,0.06809 0.191921,0.12877 0.308338,0.134841 0.767684,0.04003 1.648405,0.228771 1.737088,0.372263 0.028,0.0453 0.134382,0.08547 0.236409,0.08926 0.102027,0.0038 0.413671,0.128374 0.692543,0.276856 0.40846,0.217478 0.507228,0.310526 0.508,0.478578 5.93e-4,0.13178 -0.05361,0.219196 -0.147207,0.237352 -0.08149,0.01581 -0.148167,-0.0144 -0.148167,-0.06713 z M 8.7493929,14.670012 c 0,-0.04657 -0.05715,-0.08467 -0.127,-0.08467 -0.06985,0 -0.127,0.0381 -0.127,0.08467 0,0.04657 0.05715,0.08467 0.127,0.08467 0.06985,0 0.127,-0.0381 0.127,-0.08467 z M 20.899059,14.246679 c 0.02878,-0.04657 0.01198,-0.08467 -0.03734,-0.08467 -0.04931,0 -0.08966,0.0381 -0.08966,0.08467 0,0.04657 0.0168,0.08467 0.03734,0.08467 0.02053,0 0.06088,-0.0381 0.08966,-0.08467 z m -9.813654,-0.401544 c -0.05872,-0.05872 -0.219345,0.06058 -0.219345,0.162907 0,0.05614 0.04858,0.04972 0.129046,-0.01706 0.07098,-0.0589 0.11161,-0.124534 0.0903,-0.145845 z m -4.114012,1.32788 c 0,-0.04931 0.0381,-0.06612 0.084667,-0.03734 0.046567,0.02878 0.084667,0.06913 0.084667,0.08966 0,0.02054 -0.0381,0.03734 -0.084667,0.03734 -0.046567,0 -0.084667,-0.04035 -0.084667,-0.08966 z M 7.2792227,15.05044 c -0.03266,-0.08511 -0.020667,-0.193458 0.02665,-0.240775 0.1294064,-0.129406 0.1865591,-0.02032 0.1049441,0.200307 -0.065479,0.177008 -0.077751,0.180781 -0.1315944,0.04047 z M 19.242965,13.25003 c -0.03022,-1.872268 0.01052,-3.9533158 0.07873,-4.0215214 0.05466,-0.054664 0.05454,-0.1590626 -3.39e-4,-0.3034697 -0.04603,-0.1210761 -0.07418,-0.3749665 -0.06254,-0.5642009 0.01164,-0.1892345 -0.0013,-0.3806095 -0.02874,-0.4252779 -0.02747,-0.044668 -0.0624,-0.2145653 -0.07764,-0.3775486 -0.01525,-0.1629834 -0.04948,-0.3153834 -0.07608,-0.3386667 -0.0266,-0.023283 -0.135669,-0.2709334 -0.242383,-0.5503334 -0.106714,-0.2794 -0.238177,-0.6223 -0.292138,-0.762 C 18.483159,5.7550966 18.372876,5.6433333 18.267442,5.6289311 18.170486,5.6156871 17.894798,5.4233815 17.654802,5.2015855 17.391937,4.958655 17.041241,4.736019 16.772752,4.6416236 16.527621,4.5554405 16.280577,4.4487541 16.223765,4.4045426 c -0.140088,-0.1090178 -1.177343,-0.1082344 -1.565046,0.00118 -0.248103,0.070019 -0.33434,0.063623 -0.412533,-0.030595 -0.11273,-0.1358302 -0.50146,-0.1625373 -0.50146,-0.034452 0,0.046567 -0.08994,0.084667 -0.199872,0.084667 -0.221886,0 -1.154462,0.5784136 -1.155373,0.7166001 -3.22e-4,0.048253 -0.135141,0.1793786 -0.299606,0.2913896 -0.369348,0.2515487 -0.969815,0.9928946 -0.969815,1.1973481 0,0.08317 -0.04294,0.1655325 -0.09543,0.1830281 -0.05871,0.019571 -0.107531,0.3399009 -0.126879,0.8325556 -0.0173,0.44041 -0.04943,0.9340954 -0.07141,1.0970788 -0.02198,0.1629833 0.01768,0.4634903 0.08813,0.6677934 0.104201,0.3021669 0.110472,0.4563561 0.03362,0.8265627 -0.05196,0.250307 -0.08836,0.73085 -0.08088,1.067874 0.0075,0.337023 -0.01398,0.721598 -0.0477,0.854609 -0.0365,0.143971 -0.02548,0.263979 0.02722,0.29655 0.13489,0.08337 0.02631,0.517311 -0.115792,0.462779 -0.07953,-0.03052 -0.1001,-0.115185 -0.06346,-0.261168 0.03841,-0.153019 0.0113,-0.247395 -0.09295,-0.323622 -0.170818,-0.124905 -0.108551,-0.458711 0.08557,-0.458711 0.139856,0 0.164048,-0.217584 0.03318,-0.298462 -0.04846,-0.02995 -0.0654,-0.12601 -0.03764,-0.213465 0.05477,-0.172556 -0.08547,-0.504073 -0.213234,-0.504073 -0.04347,0 -0.05758,0.06668 -0.03137,0.148166 0.03922,0.121911 0.0321,0.126165 -0.04015,0.02401 -0.0483,-0.06829 -0.05686,-0.163539 -0.01903,-0.211667 0.117176,-0.149071 0.194296,-0.743248 0.103732,-0.79922 -0.04626,-0.02859 -0.110419,-0.1568066 -0.142575,-0.2849249 -0.04724,-0.1882199 -0.03352,-0.2233703 0.07146,-0.1830852 0.08003,0.03071 0.166078,-0.017695 0.224064,-0.126043 0.08483,-0.15851 0.07083,-0.1759123 -0.141673,-0.176024 -0.217502,-1.185e-4 -0.237517,-0.028055 -0.257764,-0.3598334 -0.01544,-0.2530113 0.002,-0.3227655 0.0589,-0.2351612 0.04447,0.068501 0.107399,0.097997 0.13985,0.065546 0.07888,-0.078882 -0.133038,-0.327967 -0.228721,-0.2688318 -0.04129,0.025519 -0.07507,-0.032051 -0.07507,-0.1279322 0,-0.2304518 0.07011,-0.2199553 0.3552,0.053177 0.161769,0.1549847 0.237466,0.1879128 0.237466,0.1032973 0,-0.068316 -0.135025,-0.2515688 -0.300055,-0.4072297 -0.16503,-0.1556609 -0.277259,-0.3058162 -0.249396,-0.3336786 0.02786,-0.027862 0.08461,0.00428 0.126118,0.071437 0.128086,0.2072471 0.182007,0.035784 0.06767,-0.2151686 -0.08541,-0.1874521 -0.08607,-0.2443627 -0.0032,-0.2719967 0.05766,-0.01922 0.104837,-0.1003509 0.104837,-0.1802903 0,-0.07994 0.04572,-0.1910645 0.1016,-0.2469445 0.07902,-0.079022 0.07791,-0.1016 -0.005,-0.1016 -0.05863,0 -0.08191,-0.03995 -0.05173,-0.088778 0.0374,-0.060511 0.09356,-0.05667 0.176377,0.012065 0.06683,0.055464 0.140534,0.081817 0.163788,0.058563 0.06812,-0.068123 -0.05716,-0.323841 -0.135072,-0.2756908 -0.112105,0.069285 0.315309,-0.6608289 0.507823,-0.8674683 0.09545,-0.1024525 0.173544,-0.2259702 0.173544,-0.274484 0,-0.048514 0.0762,-0.1644069 0.169333,-0.2575402 0.09313,-0.093133 0.169333,-0.1388534 0.169333,-0.1016 0,0.037253 -0.04142,0.1091531 -0.09204,0.1597771 -0.06069,0.060695 -0.06302,0.1099826 -0.0068,0.1447131 0.04687,0.028968 0.129442,-0.081324 0.183491,-0.2450939 0.128479,-0.3892949 0.388509,-0.5389303 0.563594,-0.3243223 0.06949,0.085173 0.106439,0.1140674 0.08212,0.064211 -0.02432,-0.049857 0.02944,-0.2117819 0.119476,-0.3598334 0.123585,-0.2032184 0.224031,-0.2691847 0.409887,-0.2691847 0.140728,0 0.267062,-0.054403 0.294921,-0.127 0.0268,-0.06985 0.09755,-0.1272348 0.157225,-0.1275217 0.05967,-2.87e-4 0.20374,-0.049814 0.320157,-0.1100607 0.116417,-0.060247 0.354542,-0.104245 0.529167,-0.097774 0.205429,0.00761 0.3175,-0.025962 0.3175,-0.095117 0,-0.081928 0.05863,-0.077633 0.251133,0.0184 0.179785,0.089689 0.426339,0.1140629 0.867833,0.085793 0.478727,-0.030654 0.649494,-0.010165 0.763279,0.091581 0.120231,0.1075101 0.17004,0.1115979 0.277104,0.022742 0.110346,-0.091578 0.121904,-0.085857 0.07476,0.037 -0.03782,0.098544 -0.018,0.1371584 0.06156,0.1199519 0.152938,-0.033076 1.110621,0.4422334 1.21027,0.6006711 0.04232,0.067283 0.171705,0.2101577 0.28753,0.3175 0.115824,0.1073424 0.177499,0.195168 0.137054,0.195168 -0.04044,0 0.01114,0.05931 0.114636,0.1318009 0.103495,0.07249 0.188173,0.169629 0.188173,0.2158633 0,0.046234 0.133887,0.2219213 0.297526,0.3904157 0.195053,0.2008391 0.281258,0.3576144 0.250289,0.4551862 -0.02835,0.089314 0.0094,0.1805356 0.09442,0.2281087 0.07791,0.043602 0.122831,0.1321546 0.09982,0.1967839 -0.02301,0.064629 -0.0051,0.1887809 0.03983,0.2758921 0.05738,0.1112799 0.05398,0.1412691 -0.01144,0.1008365 -0.05138,-0.031753 -0.09311,-0.00244 -0.09311,0.065391 0,0.067616 0.05715,0.1448689 0.127,0.1716728 0.149502,0.057369 0.165452,0.3319999 0.03359,0.5783825 -0.0702,0.1311777 -0.06743,0.1905892 0.01116,0.2391626 0.07046,0.043549 0.08578,0.1647739 0.04697,0.3716728 -0.03168,0.1688747 -0.03515,0.343371 -0.0077,0.3877695 0.02744,0.044399 0.06919,0.4694043 0.09278,0.9444573 0.02359,0.4750528 0.06238,0.8952788 0.08621,0.9338348 0.02383,0.03856 0.01332,0.117728 -0.02336,0.175936 -0.03668,0.05821 -0.07586,0.505883 -0.08707,0.994833 -0.02751,1.199387 -0.06907,1.393398 -0.323306,1.509236 -0.203093,0.09254 -0.210433,0.08504 -0.215354,-0.219884 z"
         id="path46" />
      <path
         style="fill:#000000;fill-opacity:1;stroke:none;stroke-width:0.3;stroke-linejoin:round;stroke-miterlimit:4;stroke-dasharray:none;stroke-opacity:1;paint-order:stroke fill markers"
         d="m 25.005392,15.850348 c 0,-0.04931 -0.0405,-0.06463 -0.09,-0.03404 -0.0495,0.03059 -0.154276,-3.39e-4 -0.232833,-0.06879 -0.139836,-0.121806 -0.949891,-0.425821 -1.201166,-0.4508 -0.174618,-0.01736 -1.038926,-0.300114 -1.143,-0.373928 -0.09125,-0.06472 -0.647042,-0.151008 -1.862666,-0.289174 -0.446973,-0.0508 -0.959327,-0.217329 -0.999728,-0.324934 -0.02726,-0.0726 -0.07553,-0.05714 -0.158679,0.05079 -0.106373,0.138084 -0.170236,0.14527 -0.581215,0.0654 -0.390083,-0.07581 -1.314324,-0.179084 -1.774045,-0.198228 -0.06985,-0.0029 -0.344271,0.01601 -0.609825,0.04205 -0.362625,0.03555 -0.508127,0.01685 -0.584458,-0.07513 -0.07837,-0.09443 -0.23678,-0.111731 -0.692118,-0.07558 -0.364442,0.02893 -0.632251,0.01222 -0.699589,-0.04367 -0.08202,-0.06808 -0.123332,-0.04571 -0.166439,0.0901 -0.05108,0.160926 -0.10039,0.17509 -0.451621,0.129711 -0.349233,-0.04512 -0.800271,-0.05882 -1.325616,-0.04026 -0.09313,0.0033 -0.464721,0.0627 -0.825751,0.132025 -0.361029,0.06932 -0.732504,0.101893 -0.825499,0.07238 -0.093,-0.02952 -0.169083,-0.0223 -0.169083,0.01604 0,0.138709 -0.474942,0.272515 -0.8890004,0.250461 -0.2328334,-0.0124 -0.5744488,0.02857 -0.7591455,0.09105 -0.1846967,0.06248 -0.4418717,0.09031 -0.5715,0.06184 -0.1442165,-0.03168 -0.2356878,-0.0163 -0.2356878,0.03963 0,0.05027 -0.0762,0.0914 -0.1693333,0.0914 -0.096923,0 -0.1693334,-0.05645 -0.1693334,-0.131997 0,-0.0727 0.040949,-0.106689 0.091151,-0.07566 0.050133,0.03098 0.1659174,-0.02392 0.2572982,-0.122004 0.1932249,-0.207403 0.4325012,-0.241572 0.3595015,-0.05134 -0.055313,0.144143 0.1804124,0.180357 0.2665692,0.04095 0.029249,-0.04733 0.085597,-0.06601 0.1252171,-0.04153 0.03962,0.02449 0.1417625,-0.04157 0.226983,-0.146786 0.1060452,-0.13093 0.22681,-0.183008 0.3826508,-0.165011 0.1468273,0.01695 0.2928373,-0.03884 0.4110814,-0.157082 l 0.1833772,-0.183377 0.09692,0.192729 c 0.0533,0.106001 0.148562,0.209777 0.211682,0.230613 0.08781,0.02899 0.101143,-0.02413 0.05677,-0.226147 -0.04887,-0.222513 -0.03297,-0.264032 0.101136,-0.264032 0.08752,0 0.198842,0.03972 0.247382,0.08826 0.06123,0.06123 0.124751,0.04341 0.207434,-0.05819 0.10693,-0.131391 0.101775,-0.139945 -0.05016,-0.08324 -0.130815,0.04883 -0.146554,0.04025 -0.06919,-0.03772 0.05508,-0.05551 0.162217,-0.0771 0.238085,-0.04799 0.125622,0.04821 0.12613,0.0698 0.0057,0.241748 -0.147174,0.210119 -0.168238,0.32047 -0.06117,0.32047 0.03909,0 0.11791,-0.102788 0.175151,-0.228418 0.08166,-0.17923 0.120073,-0.202531 0.178369,-0.108205 0.06197,0.100264 0.08347,0.09629 0.129609,-0.02394 0.03053,-0.07956 0.136897,-0.13953 0.237388,-0.133841 0.100141,0.0057 0.296373,-0.01435 0.436073,-0.04449 0.1397,-0.03013 0.206375,-0.03234 0.148167,-0.0049 -0.107759,0.0508 -0.150368,0.289781 -0.05167,0.289781 0.02979,0 0.10261,-0.06625 0.16182,-0.147225 0.07881,-0.107776 0.228772,-0.147477 0.559667,-0.148167 0.248608,-5.08e-4 0.479504,0.03716 0.513103,0.08373 0.03964,0.05494 0.113951,0.04732 0.211667,-0.02171 0.280922,-0.198452 0.386523,-0.217757 0.4814,-0.08801 0.08011,0.10956 0.111382,0.111578 0.203348,0.01313 0.06555,-0.07017 0.189211,-0.09613 0.311608,-0.06541 0.111612,0.02801 0.252721,0.01995 0.313575,-0.01793 0.06086,-0.03787 0.196371,-0.05778 0.301146,-0.04425 0.104775,0.01354 0.1905,-0.01527 0.1905,-0.06402 0,-0.06015 0.06978,-0.0621 0.217178,-0.0061 0.119448,0.04542 0.281373,0.08199 0.359833,0.08127 0.124124,-0.0011 0.126158,-0.01316 0.01565,-0.09265 -0.102025,-0.07339 -0.0937,-0.07954 0.04233,-0.03128 0.383892,0.136201 0.72339,0.1877 0.767447,0.116414 0.05767,-0.09331 0.460219,-0.101472 0.460219,-0.0093 0,0.03659 0.0762,0.06652 0.169334,0.06652 0.09313,0 0.169333,-0.02728 0.169333,-0.06061 0,-0.03334 0.104775,-0.03074 0.232833,0.0058 0.128059,0.03651 0.320855,0.05279 0.428437,0.03618 0.107582,-0.01662 0.270656,0.01 0.362387,0.05904 0.09173,0.04909 0.270409,0.104519 0.397063,0.123169 0.126654,0.01865 0.315204,0.05245 0.418999,0.07512 0.103797,0.02266 0.210884,0.0053 0.237972,-0.03848 0.02954,-0.0478 0.123426,-0.03852 0.234614,0.02319 0.101949,0.05659 0.217882,0.09347 0.25763,0.08197 0.146415,-0.04236 0.393398,0.08465 0.393398,0.202308 0,0.06671 0.04218,0.121294 0.09373,0.121294 0.05155,0 0.07084,-0.05964 0.04287,-0.132536 -0.04012,-0.104541 -0.01073,-0.120619 0.139108,-0.07612 0.104482,0.03103 0.232268,0.109722 0.283968,0.17487 0.101102,0.127399 0.241724,0.166017 0.167559,0.04602 -0.02462,-0.03984 0.04933,-0.05445 0.164336,-0.03246 0.115008,0.02199 0.209105,0.06411 0.209105,0.0936 0,0.0295 0.104775,0.059 0.232833,0.06556 0.627942,0.03217 1.4693,0.210639 1.736629,0.368368 0.164133,0.09684 0.331074,0.165908 0.37098,0.153483 0.07304,-0.02274 0.838255,0.319944 1.013214,0.453747 0.126681,0.09689 0.04318,0.494144 -0.10386,0.494144 -0.06442,0 -0.11713,-0.04035 -0.11713,-0.08966 z M 7.225393,14.890737 c 0,-0.0183 0.059129,-0.05597 0.1313974,-0.0837 0.075347,-0.02891 0.1093319,-0.01472 0.07967,0.03327 -0.049721,0.08045 -0.2110673,0.118995 -0.2110673,0.05042 z m 12.053284,-1.533058 c -0.0268,-0.06985 -0.0268,-0.18415 0,-0.254 0.0268,-0.06985 0.01695,-0.127 -0.02191,-0.127 -0.03885,0 -0.04491,-0.142875 -0.01347,-0.317501 0.03144,-0.174625 0.04361,-0.6223 0.02703,-0.994833 -0.05058,-1.136492 -0.01768,-2.274186 0.06877,-2.3783507 0.04883,-0.05884 0.05254,-0.1798343 0.0092,-0.2995175 -0.04001,-0.1104393 -0.05581,-0.3634405 -0.03511,-0.5622249 0.0207,-0.1987845 -0.0028,-0.4101769 -0.05227,-0.4697608 -0.04945,-0.059584 -0.09901,-0.2588921 -0.11013,-0.442907 -0.01112,-0.184015 -0.04141,-0.3536227 -0.0673,-0.376906 C 19.026132,7.0831189 18.669647,6.2651114 18.539239,5.8858447 18.472458,5.691626 18.391796,5.610678 18.265043,5.610678 18.162868,5.610678 17.8795,5.4127822 17.607636,5.1515648 17.317382,4.8726765 17.022105,4.6699987 16.855435,4.6352538 16.704529,4.603795 16.493324,4.5224498 16.38609,4.4544867 16.172624,4.3191943 15.233137,4.2728591 14.784038,4.375474 c -0.161496,0.0369 -0.386871,0.021214 -0.551736,-0.038402 -0.223396,-0.080781 -0.345654,-0.07699 -0.615979,0.019101 -0.431619,0.1534262 -1.226087,0.6587431 -1.226842,0.7803269 -3.22e-4,0.051248 -0.137029,0.1861164 -0.303801,0.2997081 -0.618564,0.421316 -1.287074,1.5028541 -1.183646,1.9149434 0.02712,0.1080651 0.0206,0.2142567 -0.0145,0.2359813 -0.0351,0.021725 -0.05169,0.4145847 -0.03687,0.8730223 0.04817,1.4902536 0.04873,2.002933 0.0033,3.01129 -0.02457,0.545838 -0.01354,1.003038 0.02452,1.016 0.03806,0.01296 0.03505,0.137867 -0.0067,0.277567 -0.04174,0.1397 -0.07916,0.204126 -0.08317,0.143169 -0.004,-0.06096 -0.04538,-0.08728 -0.09194,-0.0585 -0.04657,0.02878 -0.08467,0.01515 -0.08467,-0.03028 0,-0.04543 0.04356,-0.09713 0.09681,-0.114877 0.10956,-0.03652 -0.04758,-0.405175 -0.172712,-0.405175 -0.03847,0 -0.05174,-0.09525 -0.02948,-0.211667 0.02225,-0.116416 0.09362,-0.211666 0.158593,-0.211666 0.09115,0 0.105582,-0.08218 0.06319,-0.359834 -0.06139,-0.402091 -0.169975,-0.656166 -0.280419,-0.656166 -0.04037,0 -0.02431,-0.163116 0.03569,-0.36248 0.09813,-0.32605 0.09304,-0.382302 -0.05062,-0.5597136 -0.16986,-0.2097679 -0.21945,-0.4793884 -0.07133,-0.3878483 0.09503,0.058731 0.334958,-0.1019525 0.334958,-0.2243259 0,-0.040865 -0.104775,-0.074375 -0.232833,-0.074468 -0.198233,-1.439e-4 -0.235472,-0.037889 -0.250592,-0.254 -0.01219,-0.1741829 0.02102,-0.2538318 0.105834,-0.2538318 0.140199,0 0.154516,-0.074082 0.04709,-0.2436804 -0.04065,-0.064174 -0.116264,-0.090501 -0.168037,-0.058503 -0.05185,0.032045 -0.09413,0.00523 -0.09413,-0.059708 0,-0.2290323 0.118003,-0.2305167 0.353963,-0.00445 0.310688,0.2976583 0.320713,0.080211 0.0112,-0.2428555 C 10.285418,7.942346 10.269513,7.896685 10.386459,7.896685 c 0.136454,0 0.136418,-0.012781 -6.26e-4,-0.2219312 -0.13599,-0.2075469 -0.136202,-0.2286679 -0.0033,-0.3258716 0.07818,-0.057167 0.118982,-0.1271051 0.09067,-0.1554174 -0.02831,-0.028312 -0.02171,-0.119795 0.01467,-0.2032951 0.03638,-0.0835 0.05696,-0.2089681 0.04572,-0.2788182 -0.0164,-0.1019501 10e-4,-0.1061251 0.08825,-0.021167 0.152837,0.1488392 0.272171,0.1316627 0.210046,-0.030233 -0.07807,-0.203442 0.08897,-0.7244584 0.309245,-0.9646 0.106787,-0.1164167 0.278423,-0.3450167 0.381412,-0.5080001 0.102989,-0.1629833 0.187895,-0.2563283 0.18868,-0.2074333 7.87e-4,0.048895 -0.03999,0.1303198 -0.09062,0.1809438 -0.06628,0.066281 -0.06624,0.1079939 1.61e-4,0.1490282 0.08295,0.05127 0.261216,-0.2651979 0.261216,-0.4637382 0,-0.071218 0.269108,-0.2514672 0.375434,-0.2514672 0.02634,0 0.0479,0.05715 0.0479,0.127 0,0.06985 0.04035,0.1270001 0.08966,0.1270001 0.04931,0 0.07034,-0.031267 0.04672,-0.069482 -0.02362,-0.038215 0.03072,-0.1906152 0.120759,-0.3386667 0.123585,-0.2032184 0.224031,-0.2691847 0.409887,-0.2691847 0.145164,0 0.267029,-0.054317 0.29698,-0.1323664 0.02794,-0.072801 0.08653,-0.11028 0.130208,-0.083286 0.04368,0.026994 0.103346,0.010359 0.132595,-0.036967 0.02925,-0.047326 0.127132,-0.086048 0.217517,-0.086048 0.09039,0 0.164336,-0.032848 0.164336,-0.072995 0,-0.040147 0.139644,-0.057606 0.310319,-0.038798 0.170674,0.018808 0.333963,-0.00406 0.362863,-0.050822 0.0289,-0.04676 0.136477,-0.063069 0.239062,-0.036243 0.102585,0.026827 0.171067,0.073776 0.152182,0.1043324 -0.01888,0.030556 0.25777,0.030185 0.614786,-8.255e-4 0.501485,-0.043559 0.694035,-0.028016 0.846592,0.068337 0.108609,0.068596 0.280059,0.134346 0.381,0.1461123 0.426245,0.049685 1.485143,0.7100661 1.352022,0.8431871 -0.02694,0.026937 0.05684,0.089209 0.186174,0.1383815 0.129334,0.049172 0.21106,0.1134961 0.181615,0.1429414 -0.02945,0.029445 0.02242,0.1067398 0.115257,0.1717654 0.09284,0.065026 0.168795,0.1570989 0.168795,0.204607 0,0.047508 0.1143,0.2006786 0.254,0.3403786 0.166362,0.1663626 0.254,0.3393903 0.254,0.5014872 0,0.1714797 0.04204,0.2474872 0.136875,0.2474872 0.0917,0 0.123299,0.051915 0.09574,0.1573079 -0.02262,0.086519 -0.0032,0.2250955 0.04317,0.3079471 0.05817,0.1039515 0.05656,0.1334913 -0.0052,0.095311 -0.167688,-0.1036371 -0.17786,0.08601 -0.01222,0.227836 0.186767,0.1599152 0.2075,0.3286439 0.07159,0.5825983 -0.06987,0.1305523 -0.06755,0.190517 0.0092,0.2379573 0.06943,0.042909 0.08402,0.1735427 0.0451,0.4038771 -0.03203,0.1895963 -0.02225,0.3622547 0.02209,0.3896533 0.04467,0.027609 0.05344,0.1923179 0.01997,0.3753446 -0.0328,0.1793802 -0.02617,0.4166141 0.01473,0.5271865 0.0409,0.1105725 0.04901,0.7742523 0.01801,1.4748443 -0.031,0.700592 -0.05071,1.383743 -0.04381,1.518111 0.01315,0.256009 -0.18892,0.644693 -0.335165,0.644693 -0.04696,0 -0.107302,-0.05715 -0.134106,-0.127 z"
         id="path44" />
      <path
         style="fill:#000000;fill-opacity:1;stroke:none;stroke-width:0.3;stroke-linejoin:round;stroke-miterlimit:4;stroke-dasharray:none;stroke-opacity:1;paint-order:stroke fill markers"
         d="m 25.043492,15.865773 c -0.155933,-0.143924 -1.467341,-0.619326 -1.556471,-0.56424 -0.04966,0.03069 -0.09029,0.01321 -0.09029,-0.03885 0,-0.05206 -0.02963,-0.07635 -0.06584,-0.05397 -0.0815,0.05037 -0.950855,-0.238013 -1.023938,-0.339659 -0.02927,-0.04071 -0.16752,-0.0779 -0.30722,-0.08265 -0.1397,-0.0047 -0.4445,-0.0379 -0.677333,-0.07367 -0.232834,-0.03577 -0.518584,-0.07239 -0.635,-0.08138 -0.59924,-0.04625 -1.044374,-0.168208 -1.191911,-0.32657 -0.131208,-0.140836 -0.162756,-0.148743 -0.162756,-0.04079 0,0.194975 -0.171334,0.231159 -0.641666,0.135512 -0.816685,-0.166081 -2.197792,-0.239134 -2.432773,-0.12868 -0.103258,0.04854 -0.256393,0.01846 -0.468243,-0.09196 -0.274878,-0.143274 -0.37652,-0.152898 -0.801411,-0.07588 -0.551006,0.09987 -0.733336,0.02136 -0.581303,-0.250305 0.04812,-0.08598 0.109215,-0.146802 0.135774,-0.13516 0.02656,0.01164 0.05781,0.01947 0.06945,0.0174 0.40367,-0.07183 1.277725,-0.09258 1.9685,-0.04675 0.186267,0.01236 0.430756,-0.01079 0.543309,-0.05146 0.117847,-0.04257 0.225576,-0.04209 0.254,0.0012 0.02715,0.04129 0.316058,0.06868 0.642025,0.06087 0.325966,-0.0078 0.668866,0.02502 0.762,0.07297 0.09313,0.04795 0.216958,0.07751 0.275166,0.0657 0.05821,-0.01181 0.105834,0.01126 0.105834,0.05126 0,0.04 0.218979,0.06389 0.48662,0.05307 0.267641,-0.01082 0.532671,0.01855 0.588958,0.06526 0.05628,0.04671 0.139835,0.06176 0.185665,0.03343 0.04583,-0.02832 0.160477,0.03131 0.254768,0.132519 0.143397,0.153918 0.192954,0.166163 0.302969,0.07486 0.108973,-0.09044 0.159756,-0.08362 0.296121,0.03979 0.09499,0.08596 0.22417,0.126091 0.305476,0.09489 0.07749,-0.02974 0.183681,-0.01867 0.235987,0.02459 0.05231,0.04326 0.190352,0.07819 0.306769,0.07763 0.354245,-0.0017 1.477836,0.195404 1.523493,0.267277 0.02356,0.03709 0.21429,0.125462 0.42384,0.196383 0.914257,0.309426 1.185333,0.490802 1.185333,0.793104 0,0.206497 -0.07812,0.251475 -0.2159,0.124305 z M 7.8180596,14.919015 c 0,-0.04931 0.035467,-0.06774 0.078815,-0.04095 0.043348,0.02679 0.1845856,-0.04931 0.3138608,-0.169123 l 0.2350456,-0.217833 0.068732,0.1858 c 0.062177,0.16808 0.082712,0.173627 0.2153059,0.05817 0.080616,-0.0702 0.1922905,-0.111016 0.2481664,-0.09071 0.055876,0.02031 0.1507657,-0.04181 0.2108662,-0.138047 0.07414,-0.118718 0.1980024,-0.174976 0.3852409,-0.174976 0.1517819,0 0.2759671,-0.03366 0.2759671,-0.07479 0,-0.04114 0.0762,-0.09472 0.1693335,-0.119073 0.105174,-0.0275 0.169333,-0.0026 0.169333,0.06573 0,0.09536 0.173203,0.212799 0.313842,0.212799 0.02529,0 0.02472,-0.106383 -0.0013,-0.236407 -0.03823,-0.19117 -0.01596,-0.238767 0.116417,-0.248738 0.09003,-0.0068 0.163698,0.0234 0.163698,0.06707 0,0.160191 0.261771,0.07365 0.336028,-0.111096 0.04211,-0.104775 0.07899,-0.141534 0.08194,-0.08169 0.003,0.05985 -0.05617,0.202722 -0.131371,0.3175 -0.123988,0.189229 -0.12424,0.208688 -0.0027,0.208688 0.07372,0 0.190874,-0.104775 0.260347,-0.232833 0.06947,-0.128058 0.12784,-0.179304 0.129704,-0.113878 0.0028,0.09817 0.02928,0.09623 0.151557,-0.01107 0.225625,-0.197999 0.650027,-0.150987 0.6823,0.07558 0.02286,0.160479 -0.03549,0.196832 -0.465667,0.290128 -0.27049,0.05866 -0.644321,0.111496 -0.830736,0.117408 -0.186415,0.0059 -0.461923,0.0721 -0.612242,0.14709 -0.184605,0.09209 -0.4057498,0.12322 -0.6813959,0.09591 -0.2475456,-0.02453 -0.5547361,0.01009 -0.7808506,0.08799 -0.2724803,0.09388 -0.4027101,0.103571 -0.4840893,0.03603 -0.082441,-0.06842 -0.1510933,-0.05641 -0.2645742,0.04629 -0.1741225,0.157578 -0.3515785,0.182322 -0.3515785,0.04902 z M 7.225393,14.890737 c 0,-0.0183 0.059129,-0.05597 0.1313974,-0.0837 0.075347,-0.02891 0.1093319,-0.01472 0.07967,0.03327 -0.049721,0.08045 -0.2110673,0.118995 -0.2110673,0.05042 z m 6.840702,-0.604913 c -0.02504,-0.02504 -0.412387,-0.05361 -0.860778,-0.0635 -0.448391,-0.0099 -0.814045,-0.03703 -0.812564,-0.06031 0.0015,-0.02328 0.05554,-0.112061 0.120125,-0.197282 0.14829,-0.195662 1.044004,-0.253475 1.081557,-0.06981 0.01728,0.0845 0.08147,0.06805 0.248603,-0.06373 0.226129,-0.178284 0.547739,-0.161796 0.432818,0.02219 -0.03331,0.05333 -0.07205,0.170849 -0.08609,0.261155 -0.02978,0.191543 -0.06065,0.2343 -0.123666,0.171286 z m 5.247732,-0.908529 c -0.0197,-0.05736 -0.02692,-0.999633 -0.01603,-2.09395 0.03002,-3.0177901 0.0267,-3.3387651 -0.03503,-3.3856622 -0.03137,-0.023836 -0.06714,-0.1938463 -0.07949,-0.3778009 -0.01235,-0.1839545 -0.05445,-0.3554045 -0.09357,-0.381 C 19.050599,7.1132865 18.969821,6.9399448 18.910205,6.7536781 18.850588,6.5674114 18.730461,6.2730544 18.643255,6.0995514 18.556049,5.9260484 18.49453,5.7355484 18.506546,5.6762181 18.520533,5.6071535 18.456003,5.5785274 18.327177,5.5966487 18.191638,5.6157144 18.052076,5.5466278 17.899589,5.384982 17.525512,4.9884355 17.13989,4.6793446 17.019236,4.6793446 c -0.06249,0 -0.140003,-0.026382 -0.172247,-0.058626 -0.03224,-0.032245 -0.14038,-0.071103 -0.2403,-0.086352 -0.09992,-0.015249 -0.233748,-0.070943 -0.297394,-0.1237658 -0.122947,-0.1020366 -1.124618,-0.131124 -1.653426,-0.048014 -0.174088,0.027361 -0.338262,0.014574 -0.36483,-0.028415 -0.06501,-0.1051884 -0.607522,-0.099947 -0.673313,0.00651 -0.02878,0.046567 -0.145329,0.084667 -0.258997,0.084667 -0.113668,0 -0.20667,0.029436 -0.20667,0.065413 0,0.1276992 -0.593622,0.3908309 -0.682102,0.3023516 -0.110888,-0.1108884 0.196014,-0.5071614 0.451478,-0.5829487 0.10356,-0.030723 0.391547,-0.1533268 0.639972,-0.2724532 0.259216,-0.1243016 0.582286,-0.2116834 0.758192,-0.2050704 0.168583,0.00634 0.336218,-0.035236 0.372524,-0.092385 0.05089,-0.080112 0.06631,-0.078527 0.06731,0.00692 7.13e-4,0.060957 0.0394,0.087283 0.08596,0.058503 0.04657,-0.02878 0.08467,-0.019892 0.08467,0.01975 0,0.075507 1.086752,0.064721 1.163016,-0.011543 0.02416,-0.024156 0.200985,0.04361 0.392953,0.1505919 0.191967,0.1069819 0.408455,0.1943925 0.481083,0.1942458 0.192438,-3.895e-4 1.095615,0.4565363 1.095615,0.5542805 0,0.045716 0.177659,0.2509357 0.394799,0.4560433 0.217139,0.2051076 0.371183,0.3965388 0.342319,0.4254027 -0.02886,0.028864 0.07923,0.1690837 0.240201,0.3115997 0.199178,0.1763391 0.292681,0.3330342 0.292681,0.4904858 0,0.1272513 0.04439,0.246162 0.09864,0.2642461 0.109289,0.03643 0.157715,0.4892309 0.05232,0.4892309 -0.114732,0 -0.07256,0.1362002 0.105872,0.3419338 0.101329,0.116834 0.149103,0.252798 0.116112,0.3304548 -0.11567,0.2722708 -0.136385,0.5129449 -0.04415,0.5129449 0.052,0 0.09454,0.0762 0.09454,0.1693333 0,0.093133 -0.04218,0.1693333 -0.09372,0.1693333 -0.058,0 -0.06853,0.056472 -0.02761,0.1481667 0.150621,0.3375676 0.182862,3.3176514 0.04852,4.4843544 -0.01812,0.157352 -0.325244,0.299322 -0.36941,0.170762 z m -8.519748,-0.469114 c -0.007,-0.06096 -0.0536,-0.08554 -0.103603,-0.05464 -0.05001,0.0309 -0.04217,-0.02187 0.01741,-0.117268 0.09112,-0.145911 0.08539,-0.198796 -0.03608,-0.333026 -0.187172,-0.206823 -0.196459,-0.541895 -0.01307,-0.471522 0.112754,0.04327 0.123183,-0.01402 0.07371,-0.404824 -0.0317,-0.250373 -0.114763,-0.520802 -0.18459,-0.600954 -0.101472,-0.116477 -0.109699,-0.213721 -0.04098,-0.484441 0.06534,-0.257437 0.06,-0.360268 -0.02227,-0.428544 -0.18773,-0.155802 -0.214893,-0.4229514 -0.043,-0.4229514 0.08379,0 0.175475,-0.060266 0.20374,-0.1339246 0.07556,-0.1968989 0.0698,-0.2047421 -0.150404,-0.2047421 -0.14966,0 -0.21258,-0.056411 -0.243535,-0.2183398 -0.02651,-0.1386611 7.87e-4,-0.234659 0.0748,-0.2630584 0.168353,-0.064603 0.143144,-0.2523625 -0.05226,-0.3892284 -0.09284,-0.065026 -0.143103,-0.1439195 -0.111703,-0.1753197 0.0314,-0.0314 0.164508,0.04582 0.295795,0.1716012 0.229915,0.2202729 0.238703,0.2219848 0.238703,0.046498 0,-0.1002072 -0.08135,-0.2257306 -0.180772,-0.278941 C 10.39909,8.0820038 10.368807,8.0270384 10.43029,7.9890404 10.50009,7.9459024 10.49781,7.8572303 10.42169,7.6556651 10.34734,7.45869 10.34424,7.3641844 10.41071,7.3213682 10.46168,7.2885382 10.49312,7.1951537 10.48058,7.113847 10.46804,7.03254 10.49311,6.9441825 10.53629,6.9174966 c 0.04318,-0.026686 0.05999,-0.078483 0.03735,-0.1151055 -0.02263,-0.036622 0.05709,-0.047806 0.177155,-0.024854 0.192761,0.036848 0.208243,0.022927 0.132305,-0.1189652 -0.108688,-0.2030854 -0.04213,-0.5646333 0.141006,-0.7659714 0.07751,-0.085208 0.21652,-0.2501736 0.308922,-0.3665903 0.0924,-0.1164166 0.221978,-0.2116667 0.287947,-0.2116667 0.06597,0 0.157407,-0.1143 0.203195,-0.254 0.04579,-0.1397 0.125163,-0.2819915 0.176389,-0.3162035 0.133623,-0.089242 0.323716,-0.079226 0.266087,0.01402 -0.02679,0.043349 -0.01,0.1027475 0.03734,0.1319968 0.169154,0.1045432 0.08298,0.3621882 -0.160595,0.4801557 -0.315192,0.1526521 -0.895914,0.8490547 -1.11827,1.3410312 -0.148015,0.3274923 -0.170722,0.5415233 -0.161684,1.5240002 0.0058,0.62865 0.01266,1.39065 0.01528,1.6933334 0.01126,1.3000727 -0.02207,2.0825407 -0.09357,2.1967717 -0.04659,0.07443 -0.04371,0.183963 0.0073,0.279353 0.04619,0.08631 0.06829,0.259807 0.04911,0.385562 -0.01918,0.125756 -0.04058,0.178773 -0.04755,0.117816 z"
         id="path42" />
    </g>
    <path
       style="fill:#000000;stroke-width:0.0846667"
       id="path38"
       d="" />
    <text
       xml:space="preserve"
       style="font-style:normal;font-variant:normal;font-weight:normal;font-stretch:normal;font-size:5.64444px;line-height:1.05;font-family:'Cooper Black';-inkscape-font-specification:'Cooper Black, Normal';font-variant-ligatures:normal;font-variant-caps:normal;font-variant-numeric:normal;font-variant-east-asian:normal;text-align:center;letter-spacing:0.899583px;word-spacing:0.537104px;text-anchor:middle;fill:#000000;fill-opacity:1;stroke:none;stroke-width:0.365;stroke-miterlimit:4;stroke-dasharray:none;stroke-opacity:1;paint-order:stroke fill markers"
       x="64.0783"
       y="9.296876"
       id="text26"><tspan
         sodipodi:role="line"
         x="64.0783"
         y="9.296876"
         style="font-style:normal;font-variant:normal;font-weight:normal;font-stretch:normal;font-size:5.64444px;font-family:'Cooper Black';-inkscape-font-specification:'Cooper Black, Normal';font-variant-ligatures:normal;font-variant-caps:normal;font-variant-numeric:normal;font-variant-east-asian:normal;text-align:center;text-anchor:middle;stroke:none;stroke-width:0.365;stroke-miterlimit:4;stroke-dasharray:none;stroke-opacity:1;paint-order:stroke fill markers"
         id="tspan32">Firma Nagrobkowa</tspan><tspan
         sodipodi:role="line"
         x="64.528091"
         y="15.223537"
         style="font-style:normal;font-variant:normal;font-weight:normal;font-stretch:normal;font-size:5.64444px;font-family:'Cooper Black';-inkscape-font-specification:'Cooper Black, Normal';font-variant-ligatures:normal;font-variant-caps:normal;font-variant-numeric:normal;font-variant-east-asian:normal;text-align:center;text-anchor:middle;stroke:none;stroke-width:0.365;stroke-miterlimit:4;stroke-dasharray:none;stroke-opacity:1;paint-order:stroke fill markers"
         id="tspan36">Sebastian Drzewiecki</tspan></text>
    <path
       fill="#000000"
       d="m 12.477197,8.2528515 h 1.177504 V 7.0753469 h 0.588752 v 1.1775046 h 1.177505 V 8.8416037 H 14.243453 V 11.196613 H 13.654701 V 8.8416037 h -1.177504 z"
       id="path933"
       style="stroke:none;stroke-width:0.0147188" />
  </g>
</svg>
