<?xml version="1.0" encoding="UTF-8" standalone="no"?>
<svg
   xmlns:dc="http://purl.org/dc/elements/1.1/"
   xmlns:cc="http://creativecommons.org/ns#"
   xmlns:rdf="http://www.w3.org/1999/02/22-rdf-syntax-ns#"
   xmlns:svg="http://www.w3.org/2000/svg"
   xmlns="http://www.w3.org/2000/svg"
   width="100.0807mm"
   height="12.445888mm"
   viewBox="0 0 100.0807 12.445888"
   version="1.1"
   id="svg8">
  <defs
     id="defs2" />
  <metadata
     id="metadata5">
    <rdf:RDF>
      <cc:Work
         rdf:about="">
        <dc:format>image/svg+xml</dc:format>
        <dc:type
           rdf:resource="http://purl.org/dc/dcmitype/StillImage" />
        <dc:title></dc:title>
      </cc:Work>
    </rdf:RDF>
  </metadata>
  <g
     id="layer1"
     transform="translate(-3.8827925,-4.1714009)">
    <g
       id="g40"
       transform="translate(-1.3185056,0.67675431)"
       style="fill:#000000;fill-opacity:1;stroke:none;stroke-width:0.3;stroke-linejoin:round;stroke-miterlimit:4;stroke-dasharray:none;stroke-opacity:1;paint-order:stroke fill markers">
      <path
         id="path50"
         style="fill:#000000;fill-opacity:1;stroke:none;stroke-width:0.3;stroke-linejoin:round;stroke-miterlimit:4;stroke-dasharray:none;stroke-opacity:1;paint-order:stroke fill markers"
         d="m 24.750139,15.783284 c -0.859873,-0.441431 -1.844876,-0.519813 -2.725152,-0.902712 -0.872492,-0.09453 -1.735184,-0.246961 -2.592571,-0.431298 -0.676795,0.178899 -1.412933,-0.232114 -2.144033,-0.146046 -0.823722,0.09067 -1.555651,-0.07272 -2.356292,-0.15221 -0.785941,0.260702 -1.538329,0.127614 -2.373923,0.123309 -0.783986,0.140095 -1.592849,0.215777 -2.34835,0.440522 -0.8434878,0.02102 -1.6557121,0.268588 -2.4838103,0.3728 0.091184,-0.204029 -0.1741648,-0.432897 0.2966973,-0.360222 -0.2056702,0.311926 0.3567125,-0.452684 0.635329,-0.291517 0.2596692,-0.157202 -0.4133937,0.530242 0.1414897,0.176435 0.6756863,0.04834 -0.161391,-0.613516 0.5217415,-0.393349 0.4315587,0.110761 0.9563208,-0.444673 1.1063468,0.03683 -0.232291,-0.476148 0.558403,-0.535647 0.798845,-0.536465 -0.0293,0.425179 -0.30686,0.840986 0.122688,0.210569 0.283015,-0.491713 -0.02108,0.338521 0.421755,-0.116434 0.80946,-0.112206 1.643981,-0.139495 2.461826,-0.09635 0.688913,0.165095 1.475307,-0.471436 2.166914,-0.147941 0.663305,0.100382 1.08308,-0.07585 1.51769,0.02492 0.448065,0.02611 1.319881,0.36438 1.233991,-0.115074 0.14101,-0.831169 0.03406,-1.747231 0.06215,-2.61112 C 19.174476,9.7503342 19.434491,8.6045939 19.07878,7.5156948 18.855905,6.9083321 18.739408,6.0530657 18.250484,5.6323572 17.582635,5.2081755 17.033715,4.6339362 16.236854,4.4284909 15.424611,4.1324043 14.586888,4.6553036 13.785606,4.3118903 c -0.589062,0.2436 -1.202478,0.5976691 -1.607215,1.1167729 -0.527852,0.338517 -1.085716,1.0799009 -1.168764,1.5371103 -0.117655,0.7949907 -0.237363,1.6459098 -0.06351,2.4358865 0.133634,0.801601 -0.146031,1.629515 -0.01997,2.450801 0.09119,0.489679 -0.297025,0.24928 -0.0034,0.644192 0.08641,0.39446 -0.06759,0.876873 -0.281647,0.306063 -0.290605,-0.465424 0.297668,-0.01202 -0.118269,-0.457929 -0.233457,-0.37646 -0.0021,-1.185741 0.148545,-0.468783 0.147424,-0.22509 -0.139538,-1.228178 -0.336984,-0.674766 0.213574,-0.566449 0.0148,-1.2161072 -0.07732,-1.6915527 0.468907,0.1331658 0.511806,-0.4697906 -0.0326,-0.2525096 C 10.159506,8.8828701 9.8244821,7.6702483 10.549344,8.3742442 10.965455,8.5054574 9.7824358,7.7848123 10.273374,7.4563993 10.451159,7.121839 10.481578,6.5516565 10.741305,6.417438 10.845217,5.7819624 11.40051,5.3554947 11.767213,5.0402128 c -0.581542,0.3686538 0.366793,-0.6236846 0.642378,-0.5159636 0.583091,-0.4211727 1.189858,-0.8207247 1.95395,-0.8483822 0.452458,-0.31175 1.228156,0.1512685 1.886809,-0.00264 0.478424,0.107093 0.659959,0.3440056 1.365261,0.5500921 0.587836,0.297245 0.785233,0.8313705 1.249151,1.1805543 0.429174,0.6110779 0.777792,1.1558628 0.843095,1.9085634 0.0156,0.5615975 -0.07241,0.7507834 0.1025,1.1877263 -0.21672,0.6203838 0.141905,1.5233416 0.05274,2.2499676 -0.02425,0.85806 -0.04327,1.725329 -0.195039,2.571394 -0.51263,0.197095 -0.465245,0.61877 0.128427,0.56059 0.565921,0.01923 0.954819,0.168496 1.624623,0.360977 0.606364,0.08067 1.077943,0.274242 1.745355,0.325108 0.713822,0.192901 1.436364,0.457008 2.039147,0.902316 0.388176,0.476785 -0.119403,0.587517 -0.455474,0.312771 z m -8.634746,-2.213939 c -0.290801,-0.363267 -0.0522,0.333 0,0 z M 10.283899,8.4667671 c -0.25283,-0.133419 0.230184,0.376272 0,0 z m 0.158827,-0.6497588 c -0.193013,-0.4430578 -0.213956,0.2918253 0,0 z m 0.381,-1.1056636 c -0.458882,-0.3182821 0.12514,0.3043592 0,0 z M 5.2554819,15.675506 c 0.4943833,-0.273263 -0.2248607,0.291178 0,0 z m 0.537262,-0.03888 c 0.095229,-0.32202 0.044333,0.376974 0,0 z m 0.1693333,-0.08467 c 0.095229,-0.32202 0.044333,0.376974 0,0 z m 0.3836878,-0.155 c -0.1032375,-0.161964 -0.052905,-0.479294 0.080108,-0.03583 0.049496,0.06735 -0.2247459,0.257016 -0.080108,0.03583 z m 0.4239895,-0.01168 c 0.080153,-0.242668 0.5053829,-0.426717 0.2016392,0.0044 0.025118,0.180893 -0.1915927,0.129478 -0.2016392,-0.0044 z M 7.2442118,15.01822 c 0.3021416,-1.063485 0.2138125,0.757595 0,0 z" />
      <path
         id="path48"
         style="fill:#000000;fill-opacity:1;stroke:none;stroke-width:0.3;stroke-linejoin:round;stroke-miterlimit:4;stroke-dasharray:none;stroke-opacity:1;paint-order:stroke fill markers"
         d="m 24.660926,15.73482 c -0.841158,-0.394411 -1.781382,-0.525675 -2.634895,-0.879589 -0.893856,-0.114099 -1.844437,-0.141458 -2.662358,-0.537828 -0.474727,0.476708 -1.308846,-0.16609 -1.950169,-0.01578 -0.85244,0.06745 -1.586623,-0.06599 -2.412473,-0.14147 -0.788376,0.179686 -1.45763,0.167015 -2.29648,0.102546 -0.808068,0.105789 -1.62953,0.211479 -2.414965,0.429421 -0.7623846,0.202238 -1.6094986,0.01021 -2.3221173,0.368706 -0.4721076,0.140771 -0.1005124,-0.21428 -0.2563428,-0.337544 0.4399417,0.241335 0.8737841,-0.668255 1.202604,-0.13795 0.4787792,-0.06026 -0.239001,-0.573956 0.4528956,-0.363856 0.4132243,-0.04736 0.9022285,-0.222912 1.0815735,0.105462 -0.29673,-0.487279 0.587131,-0.639079 0.493908,-0.286595 -0.0387,-0.521075 0.563292,-0.327736 0.178672,0.07445 -0.207512,0.660604 0.662038,-1.049255 0.329456,-0.06493 0.0053,0.07397 0.416056,-0.475636 0.515203,-0.212423 0.523809,-0.164982 1.199512,-0.06664 1.800463,-0.12979 -0.314006,0.411623 0.458074,-0.316614 0.611955,0.07147 0.519201,-0.160297 1.355931,-0.160881 1.710677,-0.242397 0.116706,-0.166669 0.972137,0.328951 1.363914,-0.031 0.162885,0.341285 0.973585,-0.05116 1.546215,0.3004 0.484015,-0.174912 1.175232,0.241817 1.57871,0.205297 0.574958,0.151685 0.882285,0.378121 1.295359,0.328985 0.611632,0.157511 1.375987,0.203786 2.032,0.453349 0.399385,0.222555 1.885917,0.702329 1.206823,1.133716 -0.159503,-0.03965 -0.305925,-0.117777 -0.450628,-0.192645 z M 8.7070596,14.670012 c -0.1585021,-0.313644 -0.3242107,0.286055 0,0 z M 6.971393,15.173015 c 0.187247,-0.195361 0.2243775,0.310023 0,0 z m 0.3111386,-0.113951 c -0.2300552,-0.494852 0.4813221,-0.259421 0.058168,0.101465 L 7.2825314,15.059062 Z M 19.243858,13.294179 c -0.02299,-1.477853 -0.02129,-2.959797 0.03226,-4.4343726 C 19.237338,7.9356855 19.12111,7.0427775 18.647224,6.2356845 18.508172,5.4722472 17.621577,5.3619498 17.136373,4.8112685 16.426598,4.4175857 15.629201,4.1936593 14.822517,4.416565 14.087941,4.3912075 13.466324,4.2299949 12.821393,4.7898138 c -0.448051,0.4828281 -0.93817,0.7889468 -1.404028,1.3609877 -0.634258,0.6757792 -0.514546,1.6031792 -0.558846,2.4564825 0.162106,0.8615876 0.117101,1.694854 0.04084,2.565514 -0.02556,0.718942 -0.03155,1.211453 -0.04933,1.850012 -0.293631,-0.169119 -0.134577,-0.675459 -0.411215,-0.944986 -0.113943,-0.386842 0.14454,-0.71854 0.157919,-0.210829 0.355787,-0.04237 -0.08574,-1.142286 -0.235124,-0.834815 0.17923,-0.497116 0.0048,-1.0405866 -0.02057,-1.5078388 0.432308,0.037715 0.327327,-0.4234554 -0.08738,-0.320995 -0.172093,-0.4477299 -0.153742,-1.2685079 -0.0091,-1.4449183 0.353451,0.3794717 -0.158352,-0.5421901 0.197377,-0.6809896 0.181166,-0.6431466 0.516342,-1.0899501 0.918181,-1.7600868 0.524714,-0.5717088 1.112583,-0.9329715 1.835078,-1.2319616 0.728787,-0.3895796 1.386238,-0.6511548 2.122652,-0.3878803 0.629097,0.023256 1.350392,-0.1266722 1.496764,0.2779353 0.719229,0.028718 1.189339,0.6526078 1.726916,0.9921173 0.115754,0.4877095 0.803666,0.9389881 0.94995,1.5109438 0.253426,0.4496657 0.249946,1.2838687 0.17089,1.6354157 0.178039,0.6209748 0.06955,1.5201545 0.187304,2.2881553 -0.0143,0.967906 0.02001,1.979494 -0.215058,2.914662 -0.144353,0.22425 -0.43264,0.396429 -0.390744,-0.02256 z M 10.324193,8.5232115 c -0.310102,-0.3569948 0.111662,0.5214841 0,0 z m 0.372533,-0.105411 c -0.468858,-0.808516 -0.547686,0.069647 0,0 z m 8.932333,-1.1984557 c -0.0037,-0.3406999 -0.305357,0.3172735 0,0 z M 10.86606,6.7113447 c -0.34083,-0.3108388 -0.140276,0.2354252 -3e-6,0 z m 0.930036,-1.6402004 c -0.369198,-0.034181 -0.146566,0.5783565 0,0 z" />
      <path
         id="path46"
         style="fill:#000000;fill-opacity:1;stroke:none;stroke-width:0.3;stroke-linejoin:round;stroke-miterlimit:4;stroke-dasharray:none;stroke-opacity:1;paint-order:stroke fill markers"
         d="m 25.005392,15.856557 c -0.666836,-0.297581 -1.482639,-0.548623 -2.232744,-0.753056 -0.690934,-0.303516 -1.377411,-0.31432 -2.056318,-0.418459 -0.70144,-0.04676 -1.248504,-0.534186 -1.842668,-0.234398 -0.949955,-0.21179 -1.926227,-0.19362 -2.891349,-0.180933 -0.548046,-0.234344 -1.378805,-0.102951 -1.765122,-0.129127 -0.726814,0.332979 -1.651288,0.04538 -2.450893,0.228255 -0.709872,0.06766 -1.398035,0.33051 -2.1133601,0.376025 -0.6230978,-0.03212 -1.3827115,0.307911 -1.8348863,0.139466 0.2983391,-0.239345 0.6474456,-0.490071 1.1776025,-0.338113 0.4309843,-0.04512 -0.075792,-0.548468 0.4274464,-0.23045 0.5005961,0.09682 0.7009375,-0.66962 0.9328945,0.0091 -0.03899,-0.60709 1.372313,-0.80014 0.694172,-0.01407 0.370978,-0.402116 0.746054,-0.532878 1.363618,-0.570113 -0.319546,0.605019 1.022287,-0.419231 1.225427,0.160125 0.532788,-0.357125 0.908289,0.0059 1.498104,-0.239643 0.604406,-0.180436 1.151513,-0.08405 1.772949,-0.0078 0.665035,-0.06506 1.335577,0.02102 2.014501,0.09837 0.762281,0.155707 1.343585,0.170364 2.084167,0.384321 0.61835,0.298872 1.211166,0.267051 1.981404,0.430835 0.7563,0.162522 1.472909,0.44859 2.142467,0.843522 0.292896,0.09166 0.154707,0.727382 -0.127412,0.446119 z M 8.7493929,14.670012 c -0.3117621,-0.340743 -0.324814,0.331224 0,0 z M 20.899059,14.246679 c -0.0037,-0.340708 -0.305355,0.317283 0,0 z m -9.813654,-0.401544 c -0.360185,-0.0048 -0.14379,0.419908 1e-6,2e-6 z m -4.114012,1.32788 c 0.187247,-0.195361 0.2243775,0.310023 0,0 z M 7.2792227,15.05044 c 0.032728,-0.724832 0.3076748,0.230636 -3e-7,2e-6 z M 19.242965,13.25003 c 0.0025,-1.339341 -0.05813,-2.688446 0.07873,-4.0215214 C 19.2756,8.5264982 19.286115,7.7165329 18.985207,7.040222 18.723853,6.3237987 18.519163,5.5785425 17.746055,5.2830845 17.173016,4.7703675 16.425764,4.3720672 15.654252,4.3244087 c -0.665405,0.010605 -1.299434,0.1636224 -1.892603,-0.024598 -0.581722,0.2505714 -1.253177,0.5877853 -1.671774,1.133522 -0.594275,0.4656495 -1.099404,1.1230206 -1.172393,1.8777585 -0.139186,0.945555 -0.02801,1.8735968 0.0555,2.7971952 -0.157964,0.758771 -0.07693,1.548608 -0.157873,2.308615 0.351427,0.321121 -0.339454,0.804989 -0.131292,0.137041 -0.211119,-0.284591 -0.267462,-0.633724 0.09439,-0.796834 -0.111003,-0.351676 -0.276023,-1.160927 -0.407325,-0.724922 0.113336,-0.492192 0.122365,-1.0340858 -0.04851,-1.4937537 0.427216,0.061121 0.377091,-0.4415423 -0.05836,-0.3427546 -0.143179,-0.3712839 -0.05093,-0.5911341 0.154834,-0.5575036 -0.364748,-0.1084982 -0.398966,-0.7547093 0.04041,-0.2599878 0.751886,0.4845193 -0.8343683,-1.0322318 -0.06112,-0.5019334 -0.292304,-0.4596872 0.215477,-0.9456486 0.16059,-1.2114534 0.599037,0.3221484 -0.189791,-0.4237106 0.366921,-0.6465472 0.226556,-0.198483 0.607122,-1.0952655 0.76001,-0.942299 -0.189964,0.7238134 0.388117,-1.0154913 0.764603,-0.2526117 0.07906,-0.7545262 0.984678,-0.7870513 1.537221,-1.0904844 0.717869,-0.261984 1.339492,0.090587 2.14476,-0.026114 0.233224,0.1159229 0.670994,0.1650853 0.693261,0.1626448 0.418654,0.3175421 1.348475,0.5293521 1.686488,1.1759604 0.34877,0.4539961 0.804927,1.0248539 1.042725,1.5692121 0.145758,0.5162278 -0.150238,0.5198009 0.196651,0.9383808 -0.174919,0.6810861 0.02286,1.378433 0.04486,2.1279802 0.136896,0.8454651 0.01706,1.6463111 -0.01996,2.4930871 0.127151,0.285917 -0.264035,2.008895 -0.533303,1.076021 z" />
      <path
         id="path44"
         style="fill:#000000;fill-opacity:1;stroke:none;stroke-width:0.3;stroke-linejoin:round;stroke-miterlimit:4;stroke-dasharray:none;stroke-opacity:1;paint-order:stroke fill markers"
         d="m 25.005392,15.850348 c -0.629995,-0.270698 -1.396067,-0.560078 -2.121953,-0.719424 -1.030899,-0.51913 -2.241324,-0.309772 -3.297044,-0.733219 -0.2758,-0.23178 -0.695421,0.294926 -1.119466,-0.01764 -0.832801,-0.143666 -1.675005,-0.173329 -2.514283,-0.101115 -0.487557,-0.262074 -1.333447,-0.210535 -1.743015,-0.114539 -0.620942,0.339865 -1.588029,-0.105596 -2.334751,0.172065 -0.739312,0.09021 -1.322536,0.165445 -1.9947401,0.389551 -0.6988525,-0.04556 -1.4746164,0.258799 -2.0492508,0.20316 0.1072008,-0.176822 0.7240806,-0.645197 0.7753556,-0.174694 0.4630225,-0.286158 1.022411,-0.38424 1.4661543,-0.730151 0.123207,0.01668 0.591453,0.752449 0.39119,0.01258 0.0077,-0.261947 0.865947,0.124708 0.529465,-0.182074 -0.279713,-0.118255 0.65234,-0.106023 0.08789,0.294755 -0.06401,0.557412 0.285403,-0.511869 0.449794,-0.08415 0.105612,-0.27362 1.178783,-0.50863 0.780108,-0.02624 0.498943,-0.493255 1.32901,0.02551 1.900635,-0.35214 0.437508,0.292111 1.195515,-0.239163 1.708678,-0.08373 0.561024,0.175567 0.01391,-0.266337 0.597903,0.01105 0.674858,0.03863 1.187622,-0.01 1.857609,0.07582 0.718345,0.167611 1.426696,0.216681 2.126223,0.314715 0.23915,0.0033 0.423783,0.58974 0.405081,0.09992 0.593727,0.33453 1.039023,0.293838 1.825778,0.433343 0.879174,0.145048 1.707852,0.501734 2.493634,0.907675 0.169498,0.130086 -0.02535,0.712212 -0.220997,0.404481 z M 7.225393,14.890737 c 0.2964508,-0.293435 0.2054629,0.142484 10e-8,-10e-6 z m 12.053284,-1.533058 c -0.08145,-0.673585 0.04441,-1.402948 -0.02346,-2.117554 -0.06461,-0.789986 0.07102,-1.5974288 0.06781,-2.3601334 0.02716,-0.8539301 -0.181846,-1.6845885 -0.569393,-2.445933 -0.121988,-0.887009 -1.03652,-1.0303583 -1.568437,-1.6322031 -0.669834,-0.3719271 -1.439722,-0.5746477 -2.21213,-0.4579972 -0.778947,0.00329 -1.582109,-0.1299425 -2.223675,0.4743174 -0.670112,0.6226599 -1.476123,1.205905 -1.793027,2.1191632 -0.140461,0.7734211 -0.111403,1.579446 -0.0809,2.375881 0.07239,1.0573231 -0.09325,2.1229251 0.003,3.1742251 0.06416,0.619031 -0.354888,0.419698 -0.168016,7.96e-4 -0.518752,-0.419759 0.401944,-0.875793 -0.103877,-1.450926 -0.390079,-0.376255 0.170627,-0.993223 -0.328442,-1.4064072 0.130904,-0.092625 0.758605,-0.4027175 0.06504,-0.3890852 -0.4189098,-0.3507525 0.446401,-0.7374747 -0.239177,-0.8603656 0.0025,-0.5434969 0.872908,0.589748 0.466289,-0.1319062 -0.495657,-0.3453912 0.137356,-0.361871 -0.286957,-0.7791115 0.3685,-0.2398892 0.0336,-1.0582244 0.563423,-0.7165336 -0.231649,-0.601642 0.668087,-1.612934 0.838426,-1.6841641 -0.226864,0.8174943 0.480695,-1.0657753 0.646459,-0.2583631 0.191983,-0.1362584 0.377747,-0.7884697 0.899042,-0.7187842 0.407853,-0.3797369 1.054227,-0.3557088 1.595525,-0.4587683 0.623776,0.2843454 1.439554,-0.086304 2.081449,0.3341509 0.716538,0.1346802 1.118868,0.7290476 1.635154,1.0804733 0.393391,0.4302097 0.66542,1.1507175 1.019287,1.532699 0.04598,0.3861044 0.06485,0.4786255 -0.06265,0.6392642 0.440462,0.533417 0.0096,1.212205 0.278819,1.8534829 -0.06546,0.8326321 0.103711,1.6690967 0.0024,2.5088517 -0.125911,0.615905 0.212751,1.479475 -0.367909,1.901937 l -0.07461,-0.03731 -0.05949,-0.08969 z" />
      <path
         id="path42"
         style="fill:#000000;fill-opacity:1;stroke:none;stroke-width:0.3;stroke-linejoin:round;stroke-miterlimit:4;stroke-dasharray:none;stroke-opacity:1;paint-order:stroke fill markers"
         d="m 25.043492,15.865773 c -0.654554,-0.374464 -1.401195,-0.541512 -2.053127,-0.715594 -0.782153,-0.409415 -1.652756,-0.441486 -2.520176,-0.539641 -0.587673,0.125658 -1.043128,-0.680096 -1.369406,-0.160467 -1.000807,-0.134274 -2.03139,-0.336172 -3.035889,-0.165615 -0.466278,-0.513223 -1.409591,0.149099 -1.698829,-0.338926 0.495139,-0.515111 1.514564,-0.189837 2.214996,-0.257359 0.777099,-0.0504 1.580658,-0.05021 2.352013,0.13884 0.599461,0.229546 1.413701,-0.04584 1.910335,0.475367 0.610314,-0.133366 1.317031,0.30161 2.035347,0.267163 0.813554,0.169587 1.670682,0.448724 2.323997,0.96403 0.100738,0.119086 0.0816,0.578376 -0.159261,0.332202 z M 7.8180596,14.919015 c 0.28929,0.02975 0.6606075,-0.729305 0.7376799,-0.145872 0.5119434,-0.123108 1.032337,-0.516217 1.5877605,-0.638731 0.240454,0.455903 0.430917,0.20308 0.394772,-0.187356 0.261698,0.117295 0.527137,0.135844 0.661079,-0.141905 -0.217507,0.318726 -0.255567,0.789909 0.126276,0.293355 0.08336,-0.164736 1.104172,-0.481464 0.900616,0.12089 -0.830585,0.214445 -1.691956,0.35339 -2.5270959,0.480278 -0.654359,-0.01758 -1.3910936,0.218032 -1.8810875,0.219341 z M 7.225393,14.890737 c 0.2964508,-0.293435 0.2054629,0.142484 10e-8,-10e-6 z m 6.840702,-0.604913 c -0.497292,-0.150276 -1.347151,0.07123 -1.636936,-0.199223 0.522313,-0.638975 1.248895,0.06352 1.819877,-0.368102 0.09124,0.06794 -0.08097,0.650769 -0.182941,0.567325 z m 5.247732,-0.908529 c -0.0668,-1.783928 0.04356,-3.5709972 -0.01532,-5.3551945 C 19.178184,7.1713864 18.722501,6.4074027 18.470416,5.6037387 17.680099,5.5222322 17.309375,4.5153681 16.444389,4.4865739 15.783013,4.1297688 14.983721,4.4359934 14.291039,4.3341718 13.630616,4.0497245 13.124917,4.6788291 12.52467,4.8107626 12.381953,4.186606 13.501687,4.0292914 13.971744,3.7860833 c 0.701865,-0.230873 0.895836,-0.022723 1.616621,-0.011442 0.774045,-0.1546171 1.471149,0.3508317 2.178446,0.6199289 0.624056,0.4313191 0.983674,1.1231007 1.49427,1.6638059 0.310527,0.6199059 0.127082,1.0996114 0.444593,1.6640257 -0.09792,0.6395255 -0.02518,1.0850993 0.02698,1.8125506 0.05058,1.222888 0.06187,2.451663 -0.0494,3.671582 -0.01572,0.124187 -0.277654,0.315717 -0.369427,0.170761 z m -8.519748,-0.469114 c -0.197791,-0.113491 0.02108,-0.565546 -0.267768,-0.844643 0.633911,-0.377021 -0.329696,-1.272757 0.02478,-1.907239 C 10.13088,9.7427289 10.510755,9.6085189 10.681055,9.2798779 10.052608,9.342674 10.352893,8.7583559 10.388223,8.4901897 9.8403888,7.9649829 10.517461,8.4000236 10.691776,8.5212409 10.439999,8.0471353 10.25313,7.4925532 10.53629,6.9174966 c 0.0107,-0.3285329 0.642385,0.073048 0.297236,-0.4359712 -0.06064,-0.7795914 0.878464,-0.9860001 1.0768,-1.6188417 0.557046,-0.5483384 0.589851,0.6570663 -0.04337,0.7123808 -0.594336,0.5654502 -1.096309,1.3249075 -1.004641,2.1828698 -0.02054,1.430481 0.09124,2.8680937 -0.05216,4.2936487 -0.158401,0.257775 0.170364,0.677178 -0.01608,0.856598 z" />
    </g>
    <path
       style="fill:#000000;stroke-width:0.0846667"
       id="path38"
       d="" />
    <text
       xml:space="preserve"
       style="font-style:normal;font-variant:normal;font-weight:normal;font-stretch:normal;font-size:5.64444px;line-height:1.05;font-family:'Cooper Black';-inkscape-font-specification:'Cooper Black, Normal';font-variant-ligatures:normal;font-variant-caps:normal;font-variant-numeric:normal;font-variant-east-asian:normal;text-align:center;letter-spacing:0.899583px;word-spacing:0.537104px;text-anchor:middle;fill:#000000;fill-opacity:1;stroke:none;stroke-width:0.365;stroke-miterlimit:4;stroke-dasharray:none;stroke-opacity:1;paint-order:stroke fill markers"
       x="64.0783"
       y="9.296876"
       id="text26"><tspan
         x="64.0783"
         y="9.296876"
         style="font-style:normal;font-variant:normal;font-weight:normal;font-stretch:normal;font-size:5.64444px;font-family:'Cooper Black';-inkscape-font-specification:'Cooper Black, Normal';font-variant-ligatures:normal;font-variant-caps:normal;font-variant-numeric:normal;font-variant-east-asian:normal;text-align:center;text-anchor:middle;stroke:none;stroke-width:0.365;stroke-miterlimit:4;stroke-dasharray:none;stroke-opacity:1;paint-order:stroke fill markers"
         id="tspan32">Firma Nagrobkowa</tspan><tspan
         x="64.528091"
         y="15.223537"
         style="font-style:normal;font-variant:normal;font-weight:normal;font-stretch:normal;font-size:5.64444px;font-family:'Cooper Black';-inkscape-font-specification:'Cooper Black, Normal';font-variant-ligatures:normal;font-variant-caps:normal;font-variant-numeric:normal;font-variant-east-asian:normal;text-align:center;text-anchor:middle;stroke:none;stroke-width:0.365;stroke-miterlimit:4;stroke-dasharray:none;stroke-opacity:1;paint-order:stroke fill markers"
         id="tspan36">Sebastian Drzewiecki</tspan></text>
    <path
       id="path933"
       style="stroke:none;stroke-width:0.0147188"
       d="m 12.477197,8.2528515 c 0.392501,0 0.785003,0 1.177504,0 0,-0.3925015 0,-0.7850031 0,-1.1775046 0.25854,0.032382 0.724205,-0.1423603 0.588752,0.2840152 0,0.2978298 0,0.5956596 0,0.8934894 0.392502,0 0.785003,0 1.177505,0 -0.03238,0.25854 0.14236,0.7242052 -0.284015,0.5887522 -0.29783,0 -0.59566,0 -0.89349,0 0,0.7850031 0,1.5700063 0,2.3550093 -0.25854,-0.03238 -0.724205,0.14236 -0.588752,-0.284015 0,-0.690332 0,-1.3806629 0,-2.0709943 -0.392501,0 -0.785003,0 -1.177504,0 0,-0.1962507 0,-0.3925015 0,-0.5887522 z" />
  </g>
</svg>
